<?xml version="1.0" encoding="UTF-8"?>
<svg id="_Шар_1" data-name="Шар 1" xmlns="http://www.w3.org/2000/svg" viewBox="0 0 189.11734 24.19922">
  <defs>
    <style>
      .cls-1 {
        fill: red;
      }

      .cls-2 {
        fill: #5f5f5f;
      }
    </style>
  </defs>
  <path class="cls-1" d="M0,17.15622c0-.3593,.05078-.7265,.15234-1.1015,.10156-.3828,.23828-.6992,.41016-.9492l1.125,.2109L2.95312,4.34766l-1.80469-.25782c-.14843-.39062-.22265-.78906-.22265-1.19531,0-.41406,.08203-.83593,.24609-1.26562,.41406-.19531,1.12109-.35157,2.12109-.46875,1.00782-.125,1.90235-.1875,2.6836-.1875,.72656,0,1.62109,.01562,2.68359,.04687l.41016,.1875c.17187,.48438,.40625,1.31641,.70312,2.4961,.30471,1.17187,.82031,3.24218,1.54691,6.21089,.1172,.461,.2461,.9844,.3867,1.5704,.375-1.3594,.8359-3.28129,1.3828-5.76567l.293-1.27734h.0586l-1.9453-.32813c-.1876-.4375-.2813-.90625-.2813-1.40625,0-.32812,.043-.68359,.1289-1.0664,.7578-.24219,1.5469-.41407,2.3672-.51563,.8281-.10156,1.7305-.15234,2.707-.15234h.3867c.4141,0,1.0039,.01562,1.7696,.04687l.4101,.1875c.5,1.8125,.9766,4.01172,1.4297,6.59766,.461,2.57813,.8086,4.94533,1.043,7.10153l.0351,.293c.0079,.0547,.0274,.2422,.0586,.5625,.0313,.3125,.0469,.6133,.0469,.9023,0,.3516-.0351,.6993-.1055,1.043-.1171,.5156-.3281,.9414-.6328,1.2774-.3047,.125-.625,.2187-.9609,.2812-.3281,.0703-.7109,.1055-1.1484,.1055-.4297,0-.8594-.0508-1.2891-.1524-.4219-.0937-.7031-.2343-.8438-.4218l.4219-2.6836-.7031-7.37113,.0586-3.92578h-.3633l-.5742,4.01953c-.7656,2.83598-1.4649,5.03128-2.0977,6.58598,.2188,.4296,.4063,.9062,.5625,1.4296,.1641,.5235,.2657,1.0352,.3047,1.5352-.3281,.3125-.7773,.5547-1.3476,.7266-.5625,.1718-1.1602,.2578-1.793,.2578-.6484,0-1.2422-.0899-1.78126-.2696-.53125-.1796-.91796-.4296-1.16015-.75,.03906-.789,.23437-1.5507,.58593-2.2851l-2.08593-7.53517-.86719-3.55078-.39844,.05859,.57422,3.97266c-.03125,1.3828-.08203,2.7891-.15234,4.2188-.07032,1.4296-.14844,2.5624-.23438,3.3984h.01172c-.0625,.4922-.23047,.9297-.5039,1.3125-.26563,.375-.60547,.668-1.01954,.8789-.40625,.2109-.84765,.3164-1.32422,.3164-1.25,0-2.15234-.5391-2.70703-1.6172-.01562-.1562-.02344-.2773-.02344-.3633Z"/>
  <path class="cls-1" d="M23.13284,12.21092c0-1.414,.2265-2.6406,.6797-3.67967,.4531-1.03906,1.1484-1.84375,2.0859-2.41406,.9375-.57813,2.1133-.86719,3.5273-.86719,1.5625,0,2.7891,.29297,3.6797,.87891,.8907,.57812,1.5117,1.38281,1.8633,2.41406,.3594,1.03125,.5391,2.29295,.5391,3.78515,0,1.3516-.2383,2.5586-.7149,3.6211-.4687,1.0547-1.1797,1.8906-2.1328,2.5078-.9453,.6094-2.1055,.9141-3.4805,.9141-2.125,0-3.664-.6524-4.6171-1.9571-.9532-1.3125-1.4297-3.0468-1.4297-5.2031Zm6.5273,3.7266c.3984,0,.6406-.0313,.7266-.0938,.1797-.3125,.3164-.7539,.4101-1.3242,.0938-.5703,.1407-1.1875,.1407-1.8516,0-.6093-.0391-1.1796-.1172-1.7109-.0782-.5391-.1875-.9609-.3282-1.2656-.0859-.1016-.2578-.1758-.5156-.2227-.2578-.0547-.539-.082-.8437-.082-.3985,0-.6719,.043-.8203,.1289-.3907,.6719-.586,1.6055-.586,2.8008,0,.5625,.043,1.1367,.1289,1.7226,.086,.586,.1953,1.1172,.3281,1.5938,.0938,.1016,.2852,.1797,.5743,.2344,.289,.0468,.5898,.0703,.9023,.0703Z"/>
  <path class="cls-1" d="M36.77345,9.67972c-.1172-.336-.2109-.72269-.2813-1.16019-.0703-.4375-.1054-.86328-.1054-1.27734,.2031-.57813,.5547-1.05859,1.0547-1.44141,.5078-.38281,1.1289-.57422,1.8632-.57422,.7032,0,1.2696,.22266,1.6993,.66797,.4375,.4375,.8242,1.125,1.1601,2.0625,.3516,.98438,.6367,2.14849,.8555,3.49219,.2187,1.3437,.3711,2.793,.457,4.3477l.3399,.0117c.3437-.6875,.6406-1.668,.8906-2.9414,.25-1.2813,.3789-2.4961,.3867-3.6446l-1.4648-.25778c-.1016-.38281-.1719-.71874-.211-1.00781-.039-.29687-.0586-.62109-.0586-.97265l.0118-.32813c.1406-.20312,.375-.41406,.7031-.63281,.3281-.21875,.7187-.40234,1.1719-.55078,.4609-.14844,.9414-.22266,1.4414-.22266,2.0156,0,3.0234,1.01172,3.0234,3.03516,0,1.20316-.2148,2.49216-.6445,3.86716-.4297,1.3672-1.0508,2.6719-1.8633,3.9141-.8047,1.2422-1.7539,2.2656-2.8477,3.0703-.3828,.1562-.9023,.2344-1.5586,.2344-.3515,0-.7461-.0782-1.1836-.2344-.4375-.1484-.7617-.3047-.9726-.4688l-.2461-.8203c-.5625-1.9062-1.0703-3.5468-1.5234-4.9218-.4532-1.3829-.8672-2.4102-1.2422-3.0821l-.8555-.164Z"/>
  <path class="cls-1" d="M51.44534,2.32031c0-.6875,.2226-1.24609,.6679-1.67578,.4532-.42969,1.1719-.64453,2.1563-.64453s1.6992,.21484,2.1445,.64453c.4531,.42969,.6797,.98828,.6797,1.67578,0,.39063-.1367,.75-.4102,1.07813-.2656,.32812-.6171,.58984-1.0546,.78516-.4375,.1875-.8907,.28124-1.3594,.28124-.5078,0-.9805-.10937-1.418-.32812-.4297-.22656-.7734-.50781-1.0312-.84375-.25-.33594-.375-.66016-.375-.97266Zm-.5742,6.70313c-.1016-.38281-.1719-.73047-.211-1.04297-.039-.32031-.0586-.65234-.0586-.99609l.0117-.32813c.1641-.21094,.418-.42187,.7618-.63281,.3515-.21875,.7578-.40234,1.2187-.55078,.4688-.14844,.9531-.22266,1.4531-.22266,1.0938,0,1.8711,.2461,2.3321,.73828,.4609,.49219,.6914,1.25782,.6914,2.29688,0,.625-.0899,1.44136-.2696,2.44926-.1718,1.0078-.3828,1.9882-.6328,2.9414-.2422,.9453-.4531,1.6211-.6328,2.0273l.0234,.0234,1.7344-.6328c.3125,.2657,.5469,.5586,.7032,.8789,.164,.3203,.2695,.6914,.3164,1.1133,0,.0547-.1719,.2813-.5157,.6797-.3437,.3906-.8007,.7578-1.3711,1.1016-.5625,.3359-1.2148,.5039-1.957,.5039-.75,0-1.3594-.2032-1.8281-.6094-.461-.4062-.6914-1.1016-.6914-2.0859,0-1.1485,.0312-2.3672,.0937-3.6563,.0625-1.289,.1602-2.539,.293-3.75l-1.4648-.24608Z"/>
  <path class="cls-1" d="M59.29684,12.32812c0-1.3516,.2266-2.5586,.6797-3.62109,.4531-1.0625,1.1524-1.90234,2.0977-2.51953,.9531-.625,2.1406-.9375,3.5625-.9375,.7422,0,1.48441,.08984,2.2265,.26953,.7422,.17188,1.3711,.46094,1.8868,.86719,.4765,.38281,.8203,.89062,1.0312,1.52344,.2188,.625,.3281,1.32036,.3281,2.08596,0,.5078-.0429,1.0273-.1289,1.5586-.0937,.1562-.27731,.3632-.5508,.6211-.2734,.25-.5937,.4961-.9609,.7382-.3672,.2422-.7226,.4297-1.0664,.5625-.3281,.0235-.668,.0352-1.0195,.0352-.6172,0-1.2422-.0273-1.875-.082s-1.1875-.1172-1.6641-.1875c.0625,.664,.2656,1.2422,.6094,1.7343,.3437,.4922,.8906,.7383,1.6406,.7383,.0703,0,.1836-.0078,.3398-.0234,.4766-.0469,1.0313-.1719,1.6641-.375,.6406-.2109,1.2774-.4531,1.9102-.7266,.2968,.2969,.5156,.5938,.6562,.8907,.14059,.2968,.2383,.7226,.293,1.2773-.2422,.2812-.6367,.625-1.1836,1.0312-.5391,.4063-1.1992,.7735-1.9805,1.1016-.7812,.3203-1.5976,.4805-2.4492,.4805-1.2812,0-2.3789-.3086-3.293-.9258-.9062-.625-1.5937-1.4688-2.0625-2.5313-.4609-1.0703-.6914-2.2656-.6914-3.5859Zm7.5469-2.6953c-.1094-.1172-.293-.207-.5508-.2695-.2578-.0704-.52731-.1055-.8086-.1055-.2265,0-.457,.0195-.6914,.0586-.2265,.0391-.3633,.082-.4101,.1289-.2657,.5234-.4336,1.1172-.5039,1.7812l3.1289-.3046-.1641-1.2891Z"/>
  <path class="cls-1" d="M91.82814,10.46482c0-2.35935,.0351-4.17185,.1054-5.43748h-.0117l-1.6757-.24609c-.1016-.28906-.1797-.60937-.23441-.96094-.0547-.35156-.0821-.6914-.0821-1.01953,0-.25,.0196-.52344,.0586-.82031,.961-.34375,2.2852-.59766,3.9727-.76172,1.6875-.16406,3.3125-.24609,4.875-.24609,1.1954,0,2.2224,.09375,3.0824,.28125,.859,.1875,1.578,.61328,2.156,1.27734,.58601,.65625,.87901,1.64063,.87901,2.95313,0,.65625-.141,1.42187-.422,2.29687-.27399,.86719-.625,1.71487-1.055,2.54297-.422,.8203-.847,1.4844-1.277,1.9922-.633,.7578-1.336,1.2031-2.11,1.3359-1.2808,.2032-2.6362,.3047-4.0659,.3047-.0313,.8047-.043,1.3828-.0352,1.7344l1.7461-.1172c.3594,.5859,.5586,1.2813,.5977,2.0859,0,.0391-.1758,.2071-.5274,.5039-.3515,.2969-.8164,.5704-1.3945,.8204-.5703,.25-1.2266,.375-1.9687,.375-.7344,0-1.3203-.1993-1.7579-.5977-.4296-.4062-.64449-1.1055-.64449-2.0977-.1328-1.625-.1992-3.6875-.1992-6.1875l-.0117-.0117Zm7.41801,.1992c.20309-.8593,.37099-1.76949,.5039-2.73042,.1403-.96876,.2183-1.8125,.2343-2.53126-.039-.07031-.2382-.13281-.5976-.1875-.3594-.05468-.8242-.08203-1.3946-.08203-.3984,0-.8945,.01563-1.4882,.04688-.0704,2.35937-.1641,4.25393-.2813,5.68363l3.02351-.1993Z"/>
  <path class="cls-1" d="M105.79734,12.21092c0-1.414,.22601-2.6406,.679-3.67967,.453-1.03906,1.149-1.84375,2.08601-2.41406,.938-.57813,2.113-.86719,3.52699-.86719,1.563,0,2.79,.29297,3.68,.87891,.89101,.57812,1.512,1.38281,1.86301,2.41406,.35999,1.03125,.53999,2.29295,.53999,3.78515,0,1.3516-.239,2.5586-.715,3.6211-.469,1.0547-1.18,1.8906-2.133,2.5078-.945,.6094-2.106,.9141-3.481,.9141-2.125,0-3.664-.6524-4.617-1.9571-.953-1.3125-1.429-3.0468-1.429-5.2031Zm6.527,3.7266c.398,0,.64101-.0313,.72601-.0938,.18-.3125,.31699-.7539,.411-1.3242,.093-.5703,.14-1.1875,.14-1.8516,0-.6093-.03899-1.1796-.117-1.7109-.078-.5391-.187-.9609-.328-1.2656-.086-.1016-.258-.1758-.516-.2227-.258-.0547-.539-.082-.843-.082-.39899,0-.672,.043-.821,.1289-.39,.6719-.586,1.6055-.586,2.8008,0,.5625,.043,1.1367,.129,1.7226,.08601,.586,.19601,1.1172,.328,1.5938,.094,.1016,.285,.1797,.575,.2344,.289,.0468,.589,.0703,.902,.0703Z"/>
  <path class="cls-1" d="M119.53134,9.08203c-.164-.50781-.27399-.96093-.328-1.35937-.047-.39844-.071-.91406-.071-1.54688,.125-.10937,.32899-.23437,.60999-.375,.28101-.14844,.617-.27734,1.008-.38672,.39-.10937,.793-.16406,1.207-.16406,.945,0,1.613,.20313,2.004,.60938,.398,.40625,.597,1.01562,.597,1.82812,0,.45313-.066,1.06641-.199,1.83982-.219,1.2422-.328,1.8946-.328,1.9571,0,.039,.027,.0781,.082,.1171,.055,.0313,.113,.0469,.176,.0469,.07,0,.117-.0273,.14-.082l.118-.4688,.257-.9961c.383-1.44527,.953-2.61324,1.711-3.50386,.758-.89844,1.71101-1.34766,2.86001-1.34766,.85899,0,1.558,.1875,2.097,.5625,.547,.36719,.94199,.85547,1.18399,1.46484,.242,.60157,.36301,1.26563,.36301,1.99218,0,.9844-.09401,2.0899-.28101,3.3164-.188,1.2188-.438,2.3594-.75,3.4219-.30499,1.0391-.813,1.8633-1.52299,2.4727-.70401,.6015-1.58301,.9023-2.63701,.9023-.383,0-.83199-.0625-1.34799-.1875-.508-.1172-1.152-.3242-1.93301-.6211l-.46899,2.2148,.02299,.0235,2.238-.1524c.149,.211,.258,.4649,.329,.7618,.078,.3046,.144,.6523,.199,1.0429l.035,.2344c0,.0313-.172,.1758-.516,.4336-.343,.2656-.8,.5078-1.371,.7266-.57,.2265-1.226,.3398-1.968,.3398-1.68,0-2.52-.8945-2.52-2.6836v-.8086c0-2.3828,.016-4.5039,.047-6.3633,.039-1.8672,.117-3.5508,.234-5.0508l-1.277-.21089Zm8.25,7.17189c.28101-1.0547,.422-2.6524,.422-4.793,0-.3672-.01999-.664-.05899-.8906-.179-.2266-.437-.3398-.773-.3398-.11,.0937-.485,.7109-1.125,1.8515-.641,1.1328-1.114,2.0039-1.418,2.6133v.5625c.429,.2969,.92599,.543,1.488,.7383,.563,.1875,.992,.2812,1.289,.2812,.07,0,.129-.0078,.17599-.0234Z"/>
  <path class="cls-1" d="M134.26134,10.18362c0-1.77346,.26201-3.35159,.78601-4.7344,.53099-1.39062,1.35899-2.48828,2.48399-3.29297,1.125-.80469,2.547-1.20703,4.26601-1.20703,1.17099,0,2.40999,.15234,3.71399,.45703,.42201,.25,.789,.51172,1.10201,.78516,.32001,.26562,.625,.58984,.914,.97265,0,.55469-.07401,1.29297-.22301,2.21485-.14799,.91406-.336,1.76953-.562,2.5664-.21899,.78907-.42999,1.30081-.633,1.53521-.203,.1015-.375,.1718-.51601,.2109-.14,.0312-.35899,.0469-.65599,.0469-.367,0-.711-.0274-1.03101-.0821-.31999-.0547-.563-.1289-.72701-.2226l-.40999-3.94924c-.554-.15625-1.32401-.23438-2.308-.23438-.26601,0-.461,.00391-.586,.01172-.33601,1.07812-.524,2.52734-.563,4.3477-.00801,.2187-.01201,.5507-.01201,.9961,0,1.0468,.05501,1.8945,.16501,2.5429,.101,.6094,.20999,1.0664,.328,1.3711,.11699,.3047,.31999,.5391,.60899,.7031,.297,.1641,.73801,.2461,1.32401,.2461,.789,0,1.51599-.1132,2.17999-.3398,.672-.2344,1.40201-.5742,2.19101-1.0195,.297,.3203,.52399,.582,.67999,.7851,.164,.2031,.312,.4531,.44501,.75,.14099,.2969,.23499,.6367,.282,1.0195-.125,.2579-.457,.6016-.99701,1.0313-.539,.4297-1.246,.8164-2.121,1.1602-.875,.3437-1.855,.5156-2.94099,.5156-2.539,0-4.371-.793-5.496-2.3789-1.125-1.586-1.688-3.8555-1.688-6.8086Z"/>
  <path class="cls-1" d="M148.68735,12.21092c0-1.414,.22699-2.6406,.67999-3.67967,.453-1.03906,1.14801-1.84375,2.086-2.41406,.93701-.57813,2.11301-.86719,3.52701-.86719,1.563,0,2.789,.29297,3.67999,.87891,.89,.57812,1.51201,1.38281,1.86301,2.41406,.35899,1.03125,.539,2.29295,.539,3.78515,0,1.3516-.23801,2.5586-.715,3.6211-.468,1.0547-1.179,1.8906-2.132,2.5078-.946,.6094-2.106,.9141-3.481,.9141-2.125,0-3.664-.6524-4.617-1.9571-.953-1.3125-1.42999-3.0468-1.42999-5.2031Zm6.528,3.7266c.39799,0,.64-.0313,.726-.0938,.17999-.3125,.31599-.7539,.41-1.3242,.09399-.5703,.14099-1.1875,.14099-1.8516,0-.6093-.039-1.1796-.11699-1.7109-.078-.5391-.188-.9609-.328-1.2656-.086-.1016-.25801-.1758-.51601-.2227-.258-.0547-.539-.082-.84399-.082-.39801,0-.672,.043-.82001,.1289-.39099,.6719-.586,1.6055-.586,2.8008,0,.5625,.043,1.1367,.129,1.7226,.086,.586,.19501,1.1172,.328,1.5938,.09399,.1016,.285,.1797,.57401,.2344,.289,.0468,.59,.0703,.903,.0703Z"/>
  <path class="cls-1" d="M163.82834,15.99612c0-.336,.00801-1.1602,.02301-2.4727,.024-2.5781,.03499-3.9883,.03499-4.2305l-1.07799-.17573c-.14801-.44531-.25401-.86328-.31601-1.25391-.063-.39062-.09399-.78515-.09399-1.18359,0-.16406,.004-.28906,.01199-.375,.13301-.11719,.34001-.25781,.621-.42188,.28101-.16406,.61301-.30859,.996-.43359,.383-.13281,.77299-.19922,1.172-.19922,.93001,0,1.601,.20703,2.01601,.6211,.42099,.41406,.632,1.01953,.632,1.8164,0,.48438-.06201,1.10547-.18701,1.86332-.11699,.75-.23799,1.2851-.36299,1.6054l.42099,.0703,.70401-2.64839c.312-1.19532,.703-2.04688,1.17099-2.55469,.46901-.51563,.996-.77344,1.582-.77344,.38301,0,.76201,.0586,1.13701,.17578,.383,.11719,.67599,.26172,.879,.4336,.21899,.48437,.328,1.1289,.328,1.93359,0,.5625-.054,1.12109-.164,1.67575-.10901,.5469-.25,.9883-.422,1.3242l-2.461-.3281c-.5,.5313-1.03101,1.2696-1.593,2.2149-.563,.9375-1.01201,1.8008-1.34801,2.5898l-.01199,.6094,2.274-.5391c.38199,.586,.605,1.2813,.668,2.086,0,.0468-.17601,.2382-.528,.5742-.35101,.3359-.81601,.6484-1.39401,.9375-.571,.2812-1.22699,.4219-1.96899,.4219-.76601,0-1.40601-.2032-1.922-.6094-.508-.4141-.77701-1.1094-.80901-2.086-.007-.1171-.011-.3398-.011-.6679Z"/>
  <path class="cls-1" d="M175.50035,15.05862c0-1.2735,.015-2.2344,.047-2.8828,.03099-.6563,.11299-1.6172,.246-2.8829l-1.36-.17573c-.164-.50781-.27301-.96094-.328-1.35938-.047-.39843-.07001-.91406-.07001-1.54687,.125-.10938,.332-.23828,.621-.38672,.297-.15625,.64799-.28906,1.05501-.39844,.40599-.11718,.81599-.17578,1.23-.17578,.94499,0,1.61299,.20313,2.004,.60938,.39799,.40625,.59801,1.01562,.59801,1.82812,0,.45313-.067,1.06641-.20001,1.83982-.21799,1.2422-.32799,1.8946-.32799,1.9571,0,.039,.028,.0781,.082,.1171,.05499,.0313,.114,.0469,.17599,.0469,.06999,0,.117-.0273,.14099-.082,.31201-1.2422,.625-2.2813,.93701-3.1172,.31299-.83594,.78499-1.57812,1.418-2.22656,.633-.64844,1.453-.97266,2.461-.97266,1.25,0,2.149,.38281,2.69499,1.14844,.54701,.75781,.821,1.71484,.821,2.87108,0,1.0313-.12099,2.0274-.364,2.9883-.24199,.9531-.543,1.9492-.90199,2.9883,.01599-.0391-.039,.1133-.164,.457l.02299,.0234,1.711-.7031c.61,.5235,.96501,1.2188,1.067,2.086,0,.0546-.17599,.2773-.528,.6679-.343,.3906-.8,.7539-1.371,1.0899-.56999,.3359-1.226,.5039-1.96799,.5039-.74301,0-1.34801-.1992-1.817-.5977-.468-.3984-.703-1.0781-.703-2.039,0-.7657,.03099-1.7891,.09399-3.0704,.062-1.2812,.125-2.3125,.187-3.0937-.20299-.2188-.45299-.3359-.75-.3516-.27299,.3516-.67499,1.0547-1.207,2.1094-.53099,1.0547-.90599,1.8438-1.125,2.3672-.015,.1094-.02299,.2148-.02299,.3164,0,.3906,.05901,.918,.17599,1.582,.117,.6563,.261,1.2696,.43301,1.8399-.14,.2656-.429,.4883-.867,.6679-.437,.1797-.976,.2696-1.617,.2696-.578,0-1.043-.0469-1.395-.1406-.34299-.0938-.586-.1915-.726-.293-.14099-.1094-.211-.1758-.211-.1992-.008-.0704-.02699-.2539-.05899-.5508-.03101-.3047-.06201-.7266-.093-1.2656-.032-.5469-.047-1.168-.047-1.8633Z"/>
  <path class="cls-2" d="M76.59764,10.10152c-.3984-.25-.793-.5781-1.18359-.98433-.3906-.40625-.7187-.875-.98441-1.40625-.2578-.53125-.3867-1.08594-.3867-1.66406,0-1.15625,.2578-2.11328,.7735-2.8711,.5156-.75781,1.207-1.3164,2.0742-1.67578,.875-.35937,1.85551-.53906,2.94141-.53906,2.5391,0,4.1562,.41406,4.85149,1.24219,.0391,.25,.0586,.46484,.0586,.64453,0,.85156-.3086,1.71484-.9257,2.58984-.7032-.32812-1.4336-.5664-2.1914-.71484-.7579-.14844-1.3282-.22266-1.711-.22266-.27341,0-.539,.02734-.79691,.08203-.25,.04688-.4726,.11719-.6679,.21094-.07809,.10937-.1367,.29297-.1758,.55078-.0391,.25781-.0586,.5-.0586,.72656,.3047,.58594,1.0195,1.22266,2.1445,1.91016l.1055-.07031c.3906-.25,1.0195-.57422,1.8867-.97266,.8672-.39844,1.7188-.74609,2.5547-1.04297,.8438-.30469,1.4649-.45703,1.8633-.45703,.26559,0,.5469,.05078,.8437,.15234,.2969,.09376,.5547,.21485,.7735,.36329,.2265,.14062,.3672,.26562,.4218,.375,.1329,.27343,.1993,.64062,.1993,1.10156,0,.5-.0743,1.03906-.2227,1.61719-.14059,.57814-.3164,1.08594-.5273,1.52344-.211,.4375-.4141,.6992-.6094,.7852h-1.7813l-.2695-2.1915c-.35149-.0078-.7226,.0352-1.1133,.1289-.3906,.086-.8554,.2149-1.3945,.3868,1.0703,.7656,1.8242,1.4961,2.2617,2.1914,.4453,.6875,.668,1.4062,.668,2.1562,0,1.0625-.2617,1.9961-.7852,2.8008-.5156,.8047-1.2422,1.4297-2.1797,1.875-.9296,.4375-1.9921,.6563-3.1875,.6563-1.1093,0-2.1445-.1993-3.1054-.5977-.9532-.3984-1.72269-.9805-2.3086-1.7461-.57809-.7734-.8672-1.6953-.8672-2.7656,0-.6875,.1406-1.2852,.4219-1.793,.2812-.5078,.625-.9297,1.0312-1.2656,.4063-.3359,.9258-.6992,1.55859-1.0899Zm3.2578,6.211c.7578,0,1.34769-.168,1.7696-.5039,.0703-.1328,.125-.3907,.164-.7735,.03909-.3828,.05859-.6953,.05859-.9375-.2969-.4218-.6758-.8281-1.1367-1.2187-.4609-.3984-1.0039-.7461-1.6289-1.043-.4063,.25-.7891,.5625-1.14851,.9375-.35149,.3672-.5937,.7461-.72649,1.1367,.0312,.3985,.1445,.8086,.3398,1.2305,.2032,.4219,.4453,.7305,.7266,.9258,.4922,.1641,1.0195,.2461,1.582,.2461Z"/>
</svg>