<?xml version="1.0" encoding="UTF-8"?>
<svg id="Layer_1" data-name="Layer 1" xmlns="http://www.w3.org/2000/svg" xmlns:xlink="http://www.w3.org/1999/xlink" viewBox="0 0 276.24249 51.681">
  <defs>
    <style>
      .cls-1 {
        fill: none;
      }

      .cls-2 {
        clip-path: url(#clippath);
      }

      .cls-3 {
        fill: #282b32;
        isolation: isolate;
        opacity: .2;
      }
    </style>
    <clipPath id="clippath">
      <rect class="cls-1" x="53.14551" width="22" height="51.681"/>
    </clipPath>
  </defs>
  <path class="cls-3" d="M12.42381,23.2523h15.3809V13.7796c0-1.6927-.1058-2.8076-.3174-3.3447-.1628-.4069-.5046-.75684-1.0254-1.04981-.6999-.39063-1.4404-.58594-2.2217-.58594h-1.1718v-.90332h14.1601v.90332h-1.1719c-.7812,0-1.5218,.18718-2.2216,.56153-.5209,.26041-.879,.65922-1.0743,1.19632-.179,.5208-.2685,1.595-.2685,3.2226v21.3623c0,1.6765,.1058,2.7832,.3174,3.3203,.1627,.4069,.4964,.7569,1.0009,1.0498,.7162,.3907,1.4649,.586,2.2461,.586h1.1719v.9033h-14.1601v-.9033h1.1718c1.3509,0,2.3356-.3988,2.9541-1.1963,.4069-.5208,.6104-1.7741,.6104-3.7598v-10.083H12.42381v10.083c0,1.6765,.1058,2.7832,.3174,3.3203,.1628,.4069,.5046,.7569,1.0254,1.0498,.6999,.3907,1.4404,.586,2.2217,.586h1.1963v.9033H3v-.9033h1.17188c1.36718,0,2.36002-.3988,2.97851-1.1963,.39063-.5208,.58594-1.7741,.58594-3.7598V13.7796c0-1.6927-.10579-2.8076-.31738-3.3447-.16276-.4069-.49642-.75684-1.00098-1.04981-.71614-.39063-1.46484-.58594-2.24609-.58594h-1.17188v-.90332h14.18461v.90332h-1.1963c-.7813,0-1.5218,.18718-2.2217,.56153-.5046,.26041-.8545,.65922-1.0498,1.19632-.1953,.5208-.293,1.595-.293,3.2226v9.4727ZM56.56441,7.139c4.2969,0,8.016,1.63574,11.1573,4.9072,3.1575,3.2552,4.7363,7.3242,4.7363,12.2071,0,5.0292-1.5869,9.2041-4.7607,12.5244-3.1739,3.3203-7.015,4.9804-11.5235,4.9804-4.5573,0-8.3903-1.6194-11.499-4.8584-3.0925-3.2389-4.6387-7.43-4.6387-12.5732,0-5.2572,1.7904-9.5459,5.3711-12.8662,3.1087-2.88088,6.8278-4.3213,11.1572-4.3213Zm-.4638,1.78222c-2.9623,0-5.3386,1.09868-7.1289,3.29588-2.2298,2.7344-3.3448,6.7383-3.3448,12.0117,0,5.4037,1.1556,9.5622,3.4668,12.4756,1.7741,2.2136,4.1179,3.3203,7.0313,3.3203,3.1087,0,5.6722-1.2125,7.6904-3.6377,2.0345-2.4251,3.0518-6.25,3.0518-11.4746,0-5.664-1.11491-9.8877-3.3447-12.6709-1.7904-2.2135-4.2644-3.32028-7.4219-3.32028Zm38.7695,32.08008l-12.793-27.8564v22.1191c0,2.0345,.2198,3.304,.65919,3.8086,.6022,.6836,1.55441,1.0254,2.85651,1.0254h1.1718v.9033h-11.5234v-.9033h1.1719c1.3997,0,2.3926-.4232,2.9785-1.2696,.3581-.5208,.5371-1.7089,.5371-3.5644V13.6331c0-1.4648-.1628-2.5228-.4883-3.1738-.2278-.472-.651-.86262-1.2695-1.17187-.6022-.32552-1.5788-.48828-2.9297-.48828v-.90332h9.375l12.0117,25.90337,11.8166-25.90337h9.375v.90332h-1.148c-1.416,0-2.417,.42318-3.003,1.26955-.358,.5208-.537,1.709-.537,3.5644v21.6309c0,2.0345,.228,3.304,.684,3.8086,.60201,.6836,1.554,1.0254,2.856,1.0254h1.148v.9033h-14.063v-.9033h1.172c1.416,0,2.409-.4232,2.979-1.2696,.358-.5208,.537-1.7089,.537-3.5644V13.1449l-12.76871,27.8564h-.80569Zm34.4724-31.29883v13.08593h7.276c1.88799,0,3.14899-.2848,3.784-.8545,.84599-.7487,1.31799-2.067,1.416-3.9551h.903v11.5235h-.903c-.228-1.6114-.45601-2.6449-.68401-3.1006-.293-.5697-.77299-1.0173-1.44-1.3428-.66699-.3255-1.69299-.4883-3.07599-.4883h-7.276v10.9131c0,1.4649,.06499,2.36,.196,2.6856,.12999,.3092,.358,.5615,.683,.7568,.32599,.179,.944,.2686,1.856,.2686h5.61499c1.87201,0,3.231-.1302,4.077-.3907,.84601-.2604,1.66-.7731,2.44101-1.5381,1.00999-1.0091,2.043-2.5309,3.101-4.5654h.97701l-2.85701,8.3008h-25.51299v-.9033h1.172c.782,0,1.522-.1872,2.222-.5615,.521-.2605,.871-.6511,1.05-1.1719,.195-.5209,.293-1.5869,.293-3.1983V13.6575c0-2.0996-.21201-3.3935-.635-3.88179-.586-.65104-1.563-.97656-2.93-.97656h-1.172v-.90332h25.51299l.366,7.25097h-.952c-.342-1.7415-.724-2.9378-1.147-3.5889-.407-.651-1.01799-1.1474-1.83099-1.4892-.651-.24416-1.799-.36623-3.44299-.36623h-9.082Zm66.91899-1.80664v.90332c-.862,0-1.562,.15462-2.099,.46387-.53799,.30924-1.05,.88708-1.53799,1.73338-.326,.5697-.839,1.9287-1.539,4.0772l-9.228,26.6845h-.97701l-7.54401-21.167-7.495,21.167h-.879l-9.838-27.4902c-.733-2.0508-1.19701-3.2633-1.392-3.6377-.326-.6185-.77301-1.07421-1.343-1.36718-.55301-.30925-1.31-.46387-2.27-.46387v-.90332h12.255v.90332h-.58501c-.86299,0-1.522,.19531-1.978,.58594-.45599,.39062-.68401,.86261-.68401,1.41601,0,.5697,.358,1.8799,1.07501,3.9307l6.51799,18.5791,5.493-15.7959-.976-2.7832-.78099-2.2217c-.34201-.8138-.72501-1.53-1.14801-2.1484-.21199-.3093-.472-.56971-.78099-.7813-.407-.29297-.81401-.50456-1.22101-.63476-.30899-.09766-.797-.14649-1.465-.14649v-.90332h12.89101v.90332h-.87901c-.911,0-1.57899,.19531-2.002,.58594-.42299,.39062-.63499,.91961-.63499,1.58691,0,.8301,.367,2.2786,1.099,4.3457l6.34801,17.9932,6.29799-18.2373c.71701-2.0183,1.07501-3.418,1.07501-4.1993,0-.3743-.12201-.7242-.367-1.04976-.22701-.32552-.52-.55338-.87801-.68359-.619-.22787-1.425-.3418-2.41699-.3418v-.90332h9.88699Zm15.845,32.20217v.9033h-14.185v-.9033h1.172c1.367,0,2.36-.3988,2.979-1.1963,.39-.5208,.586-1.7741,.586-3.7598V13.7552c0-1.6764-.106-2.7832-.31799-3.3203-.162-.4069-.496-.75684-1.00101-1.04981-.716-.39063-1.465-.58594-2.246-.58594h-1.172v-.90332h14.185v.90332h-1.196c-1.351,0-2.336,.39876-2.95399,1.19629-.407,.52086-.61101,1.77406-.61101,3.75976v21.3867c0,1.6765,.106,2.7832,.31801,3.3203,.16199,.4069,.504,.7569,1.02499,1.0498,.7,.3907,1.44,.586,2.222,.586h1.196ZM236.25151,7.139v11.4502h-.903c-.293-2.1973-.82201-3.9469-1.58701-5.249-.748-1.3021-1.823-2.3356-3.222-3.1006-1.39999-.76499-2.849-1.14748-4.34599-1.14748-1.69301,0-3.093,.52083-4.19901,1.56248-1.10699,1.0254-1.661,2.1973-1.661,3.5156,0,1.0092,.34999,1.9288,1.05,2.7588,1.00899,1.2207,3.40999,2.8483,7.202,4.8828,3.093,1.6602,5.201,2.9379,6.32401,3.8331,1.13899,.8789,2.00999,1.9205,2.612,3.125,.618,1.2044,.92799,2.4658,.92799,3.7841,0,2.5065-.97701,4.6713-2.93001,6.4942-1.937,1.8066-4.435,2.7099-7.495,2.7099-.95999,0-1.864-.0732-2.70999-.2197-.505-.0814-1.554-.3743-3.149-.8789-1.57901-.5208-2.58-.7812-3.00301-.7812-.407,0-.733,.122-.97701,.3662-.228,.2441-.39899,.7487-.513,1.5136h-.903v-11.3525h.903c.42401,2.3763,.99301,4.1585,1.709,5.3467,.716,1.1719,1.80701,2.1484,3.272,2.9297,1.481,.7812,3.10001,1.1718,4.858,1.1718,2.035,0,3.638-.5371,4.81-1.6113,1.188-1.0742,1.782-2.3437,1.782-3.8086,0-.8138-.228-1.6357-.68399-2.4658-.439-.8301-1.131-1.6032-2.075-2.3193-.63501-.4883-2.36801-1.5218-5.20001-3.1006-2.83199-1.5951-4.84999-2.8646-6.05499-3.8086-1.188-.944-2.091-1.9857-2.71001-3.125-.618-1.1393-.92699-2.3926-.92699-3.7598,0-2.3763,.911-4.4189,2.73399-6.12791,1.823-1.72526,4.142-2.58789,6.95799-2.58789,1.75801,0,3.621,.43131,5.591,1.29394,.91101,.4069,1.554,.61035,1.929,.61035,.423,0,.765-.12207,1.02501-.36621,.27699-.26042,.49599-.77311,.659-1.53808h.903Zm15.186,16.1133h15.381V13.7796c0-1.6927-.10602-2.8076-.31799-3.3447-.16202-.4069-.504-.75684-1.02502-1.04981-.69998-.39063-1.43997-.58594-2.22198-.58594h-1.17099v-.90332h14.15997v.90332h-1.172c-.78098,0-1.52197,.18718-2.22198,.56153-.521,.26041-.879,.65922-1.07401,1.19632-.17899,.5208-.26901,1.595-.26901,3.2226v21.3623c0,1.6765,.10602,2.7832,.31802,3.3203,.16199,.4069,.496,.7569,1.00098,1.0498,.716,.3907,1.46503,.586,2.246,.586h1.172v.9033h-14.15997v-.9033h1.17099c1.35101,0,2.336-.3988,2.95401-1.1963,.40698-.5208,.61099-1.7741,.61099-3.7598v-10.083h-15.381v10.083c0,1.6765,.10599,2.7832,.31699,3.3203,.16301,.4069,.505,.7569,1.026,1.0498,.70001,.3907,1.44,.586,2.22101,.586h1.19701v.9033h-14.18501v-.9033h1.172c1.367,0,2.36-.3988,2.979-1.1963,.39-.5208,.58501-1.7741,.58501-3.7598V13.7796c0-1.6927-.10501-2.8076-.317-3.3447-.16301-.4069-.496-.75684-1.00101-1.04981-.71599-.39063-1.465-.58594-2.246-.58594h-1.172v-.90332h14.18501v.90332h-1.19701c-.78101,0-1.521,.18718-2.22101,.56153-.50499,.26041-.855,.65922-1.04999,1.19632-.19501,.5208-.293,1.595-.293,3.2226v9.4727Z"/>
  <path d="M9.42381,23.2511h15.3809V13.7785c0-1.6927-.1058-2.8076-.3174-3.3447-.1628-.4069-.5046-.75683-1.0254-1.0498-.6999-.39063-1.4404-.58594-2.2217-.58594h-1.1718v-.90332h14.1601v.90332h-1.1719c-.7812,0-1.5218,.18718-2.2216,.56153-.5209,.26041-.879,.65921-1.0743,1.19631-.179,.5208-.2685,1.595-.2685,3.2226v21.3623c0,1.6764,.1058,2.7832,.3174,3.3203,.1627,.4069,.4964,.7568,1.0009,1.0498,.7162,.3906,1.4649,.5859,2.2461,.5859h1.1719v.9033h-14.1601v-.9033h1.1718c1.3509,0,2.3356-.3987,2.9541-1.1963,.4069-.5208,.6104-1.7741,.6104-3.7597v-10.083H9.42381v10.083c0,1.6764,.1058,2.7832,.3174,3.3203,.1628,.4069,.5046,.7568,1.0254,1.0498,.6999,.3906,1.4404,.5859,2.2217,.5859h1.1963v.9033H0v-.9033H1.17188c1.36718,0,2.36002-.3987,2.97851-1.1963,.39063-.5208,.58594-1.7741,.58594-3.7597V13.7785c0-1.6927-.10579-2.8076-.31738-3.3447-.16276-.4069-.49642-.75683-1.00098-1.0498-.71615-.39063-1.46484-.58594-2.24609-.58594H0v-.90332H14.18461v.90332h-1.1963c-.7813,0-1.5218,.18718-2.2217,.56153-.5046,.26041-.8545,.65921-1.0498,1.19631-.1953,.5208-.293,1.595-.293,3.2226v9.4726Z"/>
  <path d="M54.67381,6.3803c4.3294,0,11.1572,4.9072,11.1572,4.9072,2.7364,3.4154,4.7364,7.3242,4.7364,12.2071,0,5.0293-2.5026,9.0048-4.7608,12.5244-2.7392,3.4804-7.0149,4.9804-11.5234,4.9804-4.5573,0-8.3903-1.6194-11.499-4.8584-3.0925-3.2389-4.6387-7.43-4.6387-12.5732,0-5.2572,1.7904-9.5459,5.3711-12.8662,3.1087-2.88087,6.8278-4.3213,11.1572-4.3213Zm0,0c-2.9622,0-5.8024,2.88086-7.5928,5.0781-2.2298,2.7344-3.3447,6.7383-3.3447,12.0117,0,5.4037,1.1556,9.5622,3.4668,12.4756,1.7741,2.2136,4.1667,5.0537,7.0801,5.0537,3.1087,0,7.887-1.0534,9.9053-3.4785,2.8789-2.0215,6.3789-8.8017,6.3789-14.0263,0-5.6641-2.5065-9.4239-4.7364-12.2071,0,0-8.2636-5.28806-11.1572-4.9072Z"/>
  <path d="M91.87011,41.0001l-12.793-27.8563v22.119c0,2.0345,.2198,3.3041,.65919,3.8086,.6022,.6836,1.55441,1.0254,2.85651,1.0254h1.1718v.9033h-11.5234v-.9033h1.1719c1.3997,0,2.3926-.4232,2.9785-1.2695,.3581-.5208,.5371-1.709,.5371-3.5645V13.632c0-1.4648-.1628-2.5227-.4883-3.1738-.2278-.47199-.651-.86261-1.2695-1.17186-.6022-.32552-1.5788-.48828-2.9297-.48828v-.90332h9.375l12.0117,25.90326,11.8166-25.90326h9.375v.90332h-1.148c-1.416,0-2.417,.42318-3.003,1.26954-.358,.5208-.537,1.709-.537,3.5644v21.6308c0,2.0345,.228,3.3041,.684,3.8086,.60201,.6836,1.554,1.0254,2.856,1.0254h1.148v.9033h-14.063v-.9033h1.172c1.416,0,2.409-.4232,2.979-1.2695,.358-.5208,.537-1.709,.537-3.5645V13.1438l-12.76871,27.8563h-.80569Z"/>
  <path d="M126.34251,9.70138v13.08592h7.27601c1.88799,0,3.14899-.2848,3.784-.8545,.84599-.7487,1.31799-2.067,1.416-3.9551h.903v11.5234h-.903c-.228-1.6113-.45601-2.6448-.68401-3.1006-.293-.5696-.77299-1.0172-1.44-1.3427-.66699-.3256-1.69299-.4883-3.07599-.4883h-7.27601v10.9131c0,1.4648,.065,2.36,.196,2.6855,.13,.3093,.358,.5615,.68301,.7568,.32599,.1791,.944,.2686,1.856,.2686h5.61499c1.87201,0,3.231-.1302,4.077-.3906,.84601-.2604,1.66-.7731,2.44101-1.5381,1.00999-1.0091,2.043-2.5309,3.101-4.5654h.97701l-2.85701,8.3007h-25.51299v-.9033h1.172c.782,0,1.522-.1872,2.222-.5615,.521-.2604,.871-.651,1.05-1.1719,.195-.5208,.293-1.5869,.293-3.1982V13.6565c0-2.0997-.21201-3.3936-.635-3.88188-.586-.65104-1.563-.97656-2.93-.97656h-1.172v-.90332h25.51299l.366,7.25096h-.952c-.342-1.7415-.724-2.9378-1.147-3.5889-.407-.651-1.01799-1.1474-1.83099-1.4892-.651-.24415-1.799-.36622-3.44299-.36622h-9.08201Z"/>
  <path d="M193.26151,7.89474v.90332c-.862,0-1.562,.15463-2.099,.46387-.53799,.30925-1.05,.88707-1.53799,1.73337-.326,.5697-.839,1.9287-1.539,4.0772l-9.228,26.6845h-.97701l-7.54401-21.167-7.495,21.167h-.879l-9.838-27.4902c-.733-2.0508-1.19701-3.2633-1.392-3.6377-.326-.6185-.77301-1.0742-1.343-1.36717-.55301-.30924-1.31-.46387-2.27-.46387v-.90332h12.255v.90332h-.58501c-.86299,0-1.522,.19531-1.978,.58594-.45599,.39062-.68401,.8626-.68401,1.416,0,.5697,.358,1.8799,1.07501,3.9307l6.51799,18.579,5.493-15.7958-.976-2.7832-.78099-2.2217c-.34201-.8138-.72501-1.5299-1.14801-2.1484-.21199-.3093-.472-.5697-.78099-.78129-.407-.29297-.81401-.50455-1.22101-.63476-.30899-.09766-.797-.14649-1.465-.14649v-.90332h12.89101v.90332h-.87901c-.911,0-1.57899,.19531-2.002,.58594-.42299,.39062-.63499,.9196-.63499,1.5869,0,.8301,.367,2.2787,1.099,4.3457l6.34801,17.9931,6.29799-18.2372c.71701-2.0183,1.07501-3.418,1.07501-4.1992,0-.3744-.12201-.7243-.367-1.04985-.22701-.32552-.52-.55338-.87801-.68359-.619-.22786-1.425-.3418-2.41699-.3418v-.90332h9.88699Z"/>
  <path d="M209.10651,40.0968v.9033h-14.185v-.9033h1.172c1.367,0,2.36-.3987,2.979-1.1963,.39-.5208,.586-1.7741,.586-3.7597V13.7541c0-1.6764-.106-2.7832-.31799-3.3203-.162-.4069-.496-.75683-1.00101-1.0498-.716-.39063-1.465-.58594-2.246-.58594h-1.172v-.90332h14.185v.90332h-1.196c-1.351,0-2.336,.39877-2.95399,1.19629-.407,.52085-.61101,1.77405-.61101,3.75975v21.3867c0,1.6764,.106,2.7832,.31801,3.3203,.16199,.4069,.504,.7568,1.02499,1.0498,.7,.3906,1.44,.5859,2.222,.5859h1.196Z"/>
  <path d="M233.25151,7.13791v11.45019h-.903c-.293-2.1973-.82201-3.9469-1.58701-5.249-.748-1.3021-1.823-2.3356-3.222-3.1006-1.39999-.76498-2.849-1.14747-4.34599-1.14747-1.69301,0-3.093,.52083-4.19901,1.56247-1.10699,1.0254-1.661,2.1973-1.661,3.5157,0,1.0091,.34999,1.9287,1.05,2.7587,1.00899,1.2207,3.40999,2.8483,7.202,4.8829,3.093,1.6601,5.201,2.9377,6.32401,3.8329,1.13899,.8789,2.00999,1.9206,2.612,3.125,.618,1.2044,.92799,2.4658,.92799,3.7842,0,2.5065-.97701,4.6712-2.93001,6.4941-1.937,1.8067-4.435,2.71-7.495,2.71-.95999,0-1.864-.0733-2.70999-.2197-.505-.0814-1.554-.3744-3.149-.879-1.57901-.5208-2.58-.7812-3.00301-.7812-.407,0-.733,.1221-.97701,.3662-.228,.2441-.39899,.7487-.513,1.5137h-.903v-11.3526h.903c.42401,2.3763,.99301,4.1586,1.709,5.3467,.716,1.1719,1.80701,2.1485,3.272,2.9297,1.481,.7813,3.10001,1.1719,4.858,1.1719,2.035,0,3.638-.5371,4.81-1.6113,1.188-1.0743,1.782-2.3438,1.782-3.8086,0-.8138-.228-1.6358-.68399-2.4659-.439-.83-1.131-1.6031-2.075-2.3193-.63501-.4883-2.36801-1.5218-5.20001-3.1006-2.83199-1.595-4.84999-2.8646-6.05499-3.8086-1.188-.944-2.091-1.9856-2.71001-3.1249-.618-1.1393-.92699-2.3926-.92699-3.7598,0-2.3763,.911-4.4189,2.73399-6.1279,1.823-1.72526,4.142-2.58789,6.95799-2.58789,1.75801,0,3.621,.43131,5.591,1.29394,.91101,.4069,1.554,.61035,1.929,.61035,.423,0,.765-.12207,1.02501-.36621,.27699-.26041,.49599-.77311,.659-1.53808h.903Z"/>
  <path d="M248.43752,23.2511h15.381V13.7785c0-1.6927-.10602-2.8076-.31799-3.3447-.16202-.4069-.504-.75683-1.02502-1.0498-.69998-.39063-1.43997-.58594-2.22198-.58594h-1.17099v-.90332h14.15997v.90332h-1.172c-.78098,0-1.52197,.18718-2.22198,.56153-.521,.26041-.879,.65921-1.07401,1.19631-.17899,.5208-.26901,1.595-.26901,3.2226v21.3623c0,1.6764,.10602,2.7832,.31802,3.3203,.16199,.4069,.496,.7568,1.00098,1.0498,.716,.3906,1.46503,.5859,2.246,.5859h1.172v.9033h-14.15997v-.9033h1.17099c1.35101,0,2.336-.3987,2.95401-1.1963,.40698-.5208,.61099-1.7741,.61099-3.7597v-10.083h-15.381v10.083c0,1.6764,.10599,2.7832,.31699,3.3203,.16301,.4069,.505,.7568,1.026,1.0498,.70001,.3906,1.44,.5859,2.22101,.5859h1.19699v.9033h-14.185v-.9033h1.172c1.367,0,2.36-.3987,2.979-1.1963,.39-.5208,.58501-1.7741,.58501-3.7597V13.7785c0-1.6927-.10501-2.8076-.317-3.3447-.16301-.4069-.496-.75683-1.00101-1.0498-.71599-.39063-1.465-.58594-2.246-.58594h-1.172v-.90332h14.185v.90332h-1.19699c-.78101,0-1.521,.18718-2.22101,.56153-.50499,.26041-.855,.65921-1.04999,1.19631-.19501,.5208-.293,1.595-.293,3.2226v9.4726Z"/>
  <g class="cls-2">
    <path d="M66.40391,34.2369c.431,.0568,.7696,.2577,1.0774,.5067,.2924,.2446,.5848,.4892,.8721,.7381,.0513,.0437,.0975,.1005,.1385,.1529,.1026,.1311,.1078,.2315-.0615,.3451-.7337,.5066-1.5442,.6726-2.4574,.4368-.1232-.0306-.2514-.0656-.3745-.0961-.0052,0-.0154,.0043-.0462,.0131,.1026,.2708,.0821,.5503,.1077,.8342,.0821,.9085-.3745,1.6292-1.0825,2.2582-.0821,.0699-.2206,.1834-.3078-.0219-.0103-.0218-.0462-.0436-.0718-.0567-.3899-.1791-.6054-.4805-.7798-.8081-.1129-.2096-.2155-.4237-.3335-.6595-.1077,.1266-.2001,.2315-.2924,.3407-.0513,.0567-.0257,.0873,.0308,.131,.7233,.5722,.8413,1.2885,.5899,2.0529-.1744,.5328-.3745,1.0526-.3899,1.6073-.0051,.1485,.0667,.3058-.0615,.4368-.2411-.249-.472-.5067-.7234-.7425-.3591-.3451-.5541-.7469-.6156-1.1968-.0462-.3058-.0872-.6071-.0872-.9129-.0821-.0131-.1026,.0393-.1386,.0699-.3078,.2577-.6053,.5241-.9183,.7731-.118,.0961-.1539,.1878-.0975,.3101,.0667,.1442,.1232,.2883,.2001,.4281,.2412,.428,.3232,.8779,.2925,1.3452-.0462,.6814-.5541,1.1007-1.1697,1.4458-.1437,.0786-.3027,.0131-.4259-.1616-.2975-.4324-.4206-.8998-.3642-1.3977,.0359-.2883,.1026-.5766,.1385-.8823-1.0825,.8037-2.3394,1.3147-3.7092,1.6466,.8055-.3275,1.5955-.6726,2.3138-1.1356-.0821-.0655-.1283-.0218-.1796-.0087-.1898,.0524-.3848,.1048-.5746,.166-.8978,.2751-1.693,.0786-2.4215-.3975-.0718-.0481-.1488-.0874-.2257-.1267-.1385-.0655-.1488-.1441-.0154-.2096,.8362-.4062,1.7186-.6334,2.6934-.4674,.354,.0612,.6208,.2577,.8619,.4717,.1744,.1529,.4874,.1747,.6874,.0393,.5028-.345,.9902-.7075,1.457-1.0875,.0616-.0481,.1283-.0918,.1693-.166-.082-.0481-.159,0-.2308,.0131-.9645,.1616-1.8982,.0961-2.7652-.3232-.2258-.1092-.4464-.2315-.6619-.3538-.0461-.0262-.1282-.1005-.0872-.1179,.0667-.0263,.1232-.1049,.1899-.0961,.3539,.048,.6464-.0743,.9337-.2228,.6669-.3494,1.4005-.4761,2.1649-.5023,.3951-.0131,.7542,.0961,1.0825,.2752,.1899,.1004,.313,.2446,.4002,.4368,.3335-.284,.5951-.5984,.8875-.8867,.2463-.2402,.3797-.5198,.4361-.8299,.0667-.38,.1334-.76,.2463-1.1313-.0359-.0087-.0513-.0131-.0616-.0131-.7541,.2446-1.4929,.0656-2.2368-.0436-.1539-.0219-.2873-.0874-.4104-.166-.0872-.0524-.0872-.1048-.0052-.1704,.5336-.4629,1.0671-.9259,1.5956-1.3933,.354-.3145,.7592-.5547,1.262-.6552,.0872-.0174,.118-.0349,.0718-.1179-.1641-.3188-.3488-.6333-.3693-.9915-.0052-.0655-.0667-.048-.1078-.0524-.6413-.0961-.8567-.3713-.7131-.9172,.0103-.035,.0154-.0699,.0308-.1049,.0975-.2315,.0872-.4324-.1283-.6333-.2154-.2009-.2462-.4586-.1282-.7163,.1898-.4106,.513-.712,.9953-.8823,.1436-.0481,.2975-.0874,.4463-.0568,.1795,.0393,.2257,.0218,.1847-.1529-.1231-.4761,.0872-.7512,.6464-.8648,.1744-.0349,.354-.0568,.5335-.083,.0308-.0043,.0719,0,.0821-.0393,.0103-.0349-.0205-.0524-.0461-.0699-.7952-.5066-.9799-1.2666-1.1697-2.0223-.1334,.083-.1488,.2228-.154,.3582-.0153,.4936-.277,.9085-.5489,1.3234-.0513,.0787-.0718,.1267,.0154,.1966,.1077,.083,.1539,.1965,.1847,.3145,.0462,.1878-.0308,.38-.1847,.4586-.1539,.0786-.4566,.0437-.6054-.0699-.3488-.2664-.2462-.7382,.1898-.8692,.0513-.0131,.0873-.0349,.1078-.0742,.159-.3014,.3283-.6028,.4053-.9304,.0359-.1354-.0205-.1616-.1591-.1048-.236,.0961-.4566,.2096-.5694,.4193-.1488,.2664-.354,.5067-.3335,.8343,.0154,.2314-.1847,.4324-.4104,.5721-.2309,.1442-.5131,.0918-.667-.1266-.1795-.2534-.2462-.5285-.082-.8124,.1487-.2534,.4206-.3276,.7387-.1966,.1231,.0524,.1642,.0262,.2052-.0699,.0719-.1572,.1539-.3188,.2463-.4673,.2103-.3276,.5438-.4761,.9747-.4761,.0719,0,.1129-.0044,.1283-.0743,.0256-.1529,.1026-.297,.2001-.428,.0615-.0874,.0205-.1005-.0718-.1311-.3592-.1048-.6772-.2664-.9645-.4804-.4566-.3407-.6208-.7687-.5644-1.2754,.0154-.1485,.0359-.2927,.0565-.4412,.0205-.1834-.0206-.3538-.1129-.5154-.4104-.7207-.277-1.4413,.0154-2.1577,.0564-.1441,.1795-.2577,.3129-.3494,.4771-.3276,.9697-.6421,1.6161-.6726,.0615-.0044,.0821-.0219,.1026-.0655,.236-.5023,.6413-.8954,1.1338-1.258-.1745-.0655-.354-.0393-.5079-.0873-.4053-.1267-.7285,.0262-1.0466,.2053-.0821,.0436-.118,.0917-.0924,.1747,.0462,.1441-.0102,.2795-.0513,.4193-.0256,.0961-.1026,.1791-.2103,.2053-.3027,.0786-.6156,.1266-.8978-.0524-.2668-.1704-.3386-.4106-.3181-.6771,.0154-.1965,.1745-.3363,.4104-.3712,.2617-.0393,.5182-.0088,.7491,.0961,.0974,.0436,.1539,.0393,.2411-.0131,.1077-.0655,.2257-.1136,.3437-.166,.0462-.0218,.1232-.0175,.1232-.0743,0-.048-.0667-.0524-.1078-.0742-.1077-.0524-.2206-.1005-.3283-.1573-.1488-.0786-.2617-.1223-.3951,.0437-.1333,.166-.6207,.1398-.8926-.0174-.1591-.0918-.2771-.2141-.3643-.3582-.118-.2009-.0821-.4062,.0872-.5591,.1539-.1398,.4053-.1791,.6362-.1004,.1488,.0524,.2873,.131,.3745,.2445,.1129,.1442,.2565,.2403,.4566,.2752,.0872,.0131,.1642,.0568,.2719,.0961,.0051-.1485,.0154-.2926,.0205-.4368,0-.0611-.0564-.0742-.1026-.1004-.1282-.0786-.2668-.1485-.3694-.2577-.2411-.2621-.2308-.5242,.0154-.7164,.2309-.1747,.6259-.1485,.8722,.0568,.1847,.1529,.277,.3538,.395,.5373,.1026,.1572-.0462,.4062-.2668,.4804-.1231,.0393-.159,.0961-.1744,.2009-.0769,.4718,.1231,.6421,.6823,.795,.1232,.0349,.2565,.048,.4105,.0786-.2412-.4018-.1847-.7731,.0615-1.1313,.0513-.0786,.0154-.1135-.0564-.1572-.2565-.1616-.4156-.3844-.4515-.6552-.0359-.2577-.1641-.4411-.4668-.5285-.2463-.0699-.4053-.2446-.5336-.4324-.1077-.1529-.1898-.3145-.2668-.4804-.1795-.4106-.0974-.6465,.3079-.9129,.1333-.0874,.2924-.1354,.4412-.2009,.0205-.0044,.0564,.0043,.0564-.0262,0-.0306-.0308-.0306-.0513-.035-.7644-.3581-1.2723-.9347-1.7956-1.5025-.0564-.0612-.1077-.0961-.2001-.1005-.1282-.0087-.2411-.0655-.2309-.1878,.0103-.1223,.1334-.1354,.2514-.1354,.4566,0,.8927-.1135,1.3339-.1922,.5336-.0961,1.0722-.1572,1.5955,.0524-.0718-.5503-.5335-.7993-1.1543-.6333-.1436,.0393-.2873,.0874-.4258,.1398-.8414,.297-1.5596,.0699-2.2214-.3844-.0924-.0611-.1744-.1354-.2617-.2053-.0872-.0699-.1641-.1354-.3026-.1397-.0975-.0044-.1899-.0612-.1899-.1573,0-.0873,.0719-.1441,.1642-.1616,.4207-.083,.7798-.2664,1.1543-.44113,.3591-.16598,.7593-.11357,1.1441-.04805,.2308,.03931,.4463,.12667,.6618,.20968,.0564,.0218,.1026,.0568,.2001,.0437-.195-.18786-.3643-.37131-.5798-.51982-.2-.13977-.395-.27954-.6002-.41494-.1744-.11356-.3694-.15724-.5849-.06988-.236,.09609-.4771,.19655-.7182,.28827-.6259,.24023-1.2672,.28828-1.9341,.13104-.3232-.07862-.5541-.28391-.8363-.41931-.0718-.03494-.0666-.11356,.0052-.16598,.0308-.02184,.0667-.04368,.1026-.05678,.4976-.17034,.8875-.47172,1.2774-.7731,.0257-.00437,.0513-.00874,.0411-.03494-.0052-.00874-.0257-.01311-.0411-.02184-.0975-.06115-.1693-.04368-.2514,.03494-.4463,.41057-1.0055,.57655-1.657,.50666-.5285-.05678-1.0774-.02183-1.5904-.15287-.3335-.08735-.6978-.0131-1.0107-.16597-.0513-.02621-.1436-.03058-.1488-.07862-.0051-.07426,.0924-.05242,.1437-.06989,.5387-.15724,1.0671-.32322,1.5698-.55908,.3951-.18345,.8311-.30138,1.3031-.26207-.1077-.18781-.1795-.20091-.395-.17471-.7439,.08736-1.3903-.08299-1.8828-.58529-.4515-.45425-.7029-.97402-.6823-1.57677,.0051-.17035-.036-.32759-.154-.47172-.0718-.08736-.1179-.18782-.1231-.29701-.0051-.08736,.0411-.15725,.1437-.17035,.1077-.0131,.1539,.05241,.1693,.14414,.0308,.19655,.1847,.32758,.3745,.42367,.3488,.18345,.7541,.27081,1.103,.45862,.4104,.22276,.8208,.44552,1.0825,.81242,.1334,.18344,.2514,.37999,.2821,.58965,.036,.23149,.1899,.35379,.3951,.46299,.0718,.03494,.1385,.07425,.2206,.11793,.0051-.03495,.0154-.05242,.0102-.06552-.2565-.46299-.2462-.95218-.1077-1.4239,.1334-.45426,.2103-.89977,.1283-1.38897,.1693,.0961,.3232,.1354,.4053,.29701,.0974,.20966,.2975,.37127,.4617,.54161,.4104,.42368,.5541,.90414,.5027,1.44138-.0307,.30138-.0666,.60276-.1179,.89977-.0308,.17908,0,.29264,.2359,.35816,.4053,.11356,.8004,.26206,1.1954,.39747,.0513-.03495,.0154-.05678,0-.07862-.513-.69885-.5592-1.42391-.1488-2.16207,.1642-.30138,.4258-.5285,.8363-.58092,.0359-.00436,.0667-.04367,.1077-.00436,.5489,.5285,.9594,1.10069,.8568,1.84758-.0462,.33195-.1899,.64207-.3284,.95218-.0667,.15724-.1334,.31011-.2001,.46736-.0307,.06551-.0205,.12229,.0513,.17034,.2771,.19655,.5541,.39747,.8311,.59402,.0308,.02184,.0513,.06115,.1027,.04805,.0513-.01748,.0307-.06115,.0307-.09173-.0564-.44114,.1539-.77746,.5387-1.06137,.2565-.18782,.3335-.45426,.4258-.71632,.0205-.05242-.0102-.16161,.1129-.16598,.1129,0,.2155,.06552,.236,.14851,.0308,.1223,.1334,.18345,.2257,.26207,.1385,.11793,.2668,.25333,.313,.41494,.2,.71632,.236,1.42827-.1232,2.11842-.0718,.1354-.1693,.2577-.2616,.3843-.1077,.1529-.1385,.3014-.0359,.4674,.0718,.1135,.1128,.2358,.1795,.3887,.3284-.4848,.8311-.7862,1.3185-1.0963,.2155-.1354,.2617-.3582,.3489-.55471,.0564-.12667,.118-.33195,.2308-.32322,.1437,.00874,.195,.20529,.2412,.34069,.04099,.12667,.0974,.24464,.1795,.35814,.4925,.6858,.5182,1.4065,.1745,2.1402-.0513,.1092-.0359,.1617,.0615,.2359,.4361,.3363,.7747,.7294,.8568,1.2405,.0102,.048,.0256,.0742,.0872,.0786,.4361,.0393,.6362,.3014,.7901,.6071,.0307,.0612,.0667,.1267,.118,.214,.3899-.4236,.4053-.8648,.236-1.3278-.0719-.1878-.195-.3538-.3079-.5241-.1026-.1573-.1898-.3189-.2411-.4892-.041-.1398-.0923-.2315-.2873-.2839-.3386-.0874-.4771-.5635-.2924-.8736,.2052-.3407,.6054-.4542,.9542-.2708,.3899,.2053,.4002,.7338,.0052,.9871-.1232,.0787-.1283,.1398-.0821,.249,.1282,.3014,.3334,.5722,.5027,.8517,.0719,.0044,.0719-.048,.0924-.083,.1077-.1921,.2411-.3712,.395-.5416,.1231-.131,.2001-.2489,.1591-.4411-.0565-.2621,.1846-.5635,.4771-.6727,.2924-.1092,.5592-.0611,.7849,.1267,.0513,.0437,.1642,.0393,.1642,.1136,.0102,.2009,.0923,.4062-.0411,.6027-.1744,.2534-.4617,.3582-.7644,.4455-.0821,.0219-.1744,.0044-.2411-.0393-.1488-.1048-.2052-.0131-.2822,.0743-.4207,.4717-.5284,1.0264-.5797,1.6248,.2873-.1136,.5797-.1179,.8773-.1005,.0975,.0044,.2001-.0349,.3027-.0567,.1128-.0219,.1487-.0655,.1231-.1791-.0872-.3494,.0667-.5678,.4669-.7076,.3899-.131,.8105-.0437,1.0055,.2184,.118,.1572,.1334,.3363,.0154,.4892-.1539,.2009-.3438,.3844-.6003,.5023-.1539,.0699-.3129,.0786-.4566-.0044-.1077-.0611-.2-.0437-.3078-.0043-.2565,.1004-.5233,.1485-.8106,.1135-.3129-.0393-.6053,.0524-.867,.2446,.4258,.1922,.59,.5198,.6516,.8998,.0154,.1048,.041,.1179,.1487,.0568,.3438-.1922,.708-.3495,1.1082-.4368,.0718-.0175,.0975-.0568,.1282-.1048,.0873-.1529,.236-.2534,.4618-.3495-.3694,.6727-.0513,1.3453-.1745,2.0092,.5695-.1135,1.1595-.1179,1.6982-.3407,.1231-.0524,.3591-.1135,.3796-.083,.0923,.1267,.2257,.0175,.3386,.083-.1898,.1092-.3745,.2097-.4976,.3669-.3951,.5067-.6978,1.0527-.8055,1.6554-.1026,.5722-.4361,1.0003-1.0466,1.2623-.0923,.0393-.118,.0743-.0872,.1616,.0616,.1878,.1026,.38,.1642,.5678,.0667,.2141,.2308,.3451,.4874,.3931,.041,.0088,.082,.0175,.1231,.0219,.7028,.083,1.0004,.4848,1.1286,1.0308,.1129,.4804,.0462,.9303-.2975,1.3365-.041,.0481-.077,.1136-.1334,.1311-.2411,.0699-.1796,.2009-.1385,.3581,.0872,.3538,.0923,.7163,.0462,1.0789-.0411,.3101-.236,.546-.5131,.725-.3847,.249-.5592,.5678-.5746,.9784-.0153,.4062-.2,.76-.5489,1.0396-.0872,.0698-.1077,.1179-.0205,.2009,.1231,.1179,.1795,.2664,.2154,.4193,.0667,.2533,.1334,.5067,.1899,.7644,.0769,.3363,.2719,.6333,.4463,.9303,.0564,.0961,.1796,.1005,.277,.1441,.1642,.0699,.2925,.1616,.313,.3276,.0103,.0874,0,.1398-.1437,.1311-.2462-.0175-.4822-.0699-.7079-.1354-.4105-.1136-.8363-.0874-1.2826-.1049,.1488,.2708,.2411,.5416,.2975,.8212,.0514,.2533,.0514,.5066,0,.76-.082,.4324,.0514,.843,.2053,1.2492,0,.0043,.0051,.0087,.0102,.0174,.0359,.0961,.0872,.2141,0,.2839-.0667,.0525-.1847-.0262-.2565-.0698-.2155-.1267-.4617-.1922-.7028-.2665-.7234-.2271-1.4519-.4499-1.9701-.9915-.0564,.1529,.0052,.2665,.0821,.3713,.159,.2184,.1283,.428-.0256,.6333-.1386,.1878-.3079,.3494-.5131,.4892-.2257,.1529-.4822,.2402-.7541,.1267-.2052-.083-.2822-.0175-.3335,.1354-.0308,.0087-.0462,.0306-.0462,.0611-.0564,.0524-.1128,.1049-.1693,.1573-.0359,0-.0564,.0174-.0667,.0437-.0359,.0174-.0718,.0393-.1077,.0567-.2514,.0656-.4515-.0393-.6618-.131-.3489-.1572-.6567-.048-.7695,.2621-.0257,.0786-.0052,.1354,.1077,.1004,.4258-.1528,.8824-.1485,1.339-.1485Zm2.1599-14.1255c-.0462-.0131-.0873-.0087-.118,.0219-.1334,.0174-.1591,.1223-.2001,.2053-.0821,.1834-.1744,.3581-.2873,.5285-.3284,.2751-.5182,.3057-.9491,.1354-.1898-.0743-.3643-.1704-.5695-.2228-.19489-.0524-.32829,0-.40009,.1572-.1129,.2403-.1745,.4849-.1693,.7426,.0051,.1616,.0667,.3014,.2462,.3843,.236,.1136,.4874,.2141,.749,.3975-.1641-.4848-.2411-.926-.1334-1.3715,.0411,.0219,.0462,.0393,.0514,.0612,.0564,.4717,.2103,.9259,.3488,1.3846,.0154,.0567,.0308,.1135,.1283,.1092,.1026-.0044,.1026-.0612,.118-.118,.1231-.4368,.2462-.8735,.2411-1.3278,0-.0437,0-.0873,.0769-.0786,.0411,.1005,.0308,.2096,.0975,.3057v.0044c-.0308,.1354,.0154,.2708,.0308,.4018-.0154,.1092-.0308,.2141-.0462,.3233,.0103,.0043,.0205,.0043,.0308,.0087,.0616-.0961,.1231-.1878,.1847-.2839,.0205-.0218,.041-.0437,.0616-.0655,.0307-.0175,.0615-.035,.041-.0699,.0257-.0262,.0513-.0568,.0821-.083,.0821-.048,.0564-.1878,.2103-.1791-.0154,.0568-.0256,.1136-.0461,.166-.118,.3407-.3592,.6333-.4926,.9653-.041,.1048-.0256,.1703,.0975,.2009,.0411,.0218,.0667,.1179,.1385,.0262,.236-.3756,.6003-.6202,1.062-.7731,.2257-.0742,.4515-.1441,.6772-.2184,.0924-.0087,.0564-.0611,.0462-.1092,.0205-.0655,.0154-.131-.0103-.1965,0-.1616-.0256-.3145-.1282-.4543,.0102-.0306-.0052-.0568-.0359-.0742-.1027-.2053-.2514-.3844-.431-.5416-.0103-.0525-.0513-.0874-.1026-.118-.1026-.1092-.2206-.1922-.3796-.2315-.0719-.0262-.1437-.0305-.2206-.0131Zm-6.2641,2.7911c.0547-.1835-.024-.2708-.236-.2621-.0359,0-.0667,.0087-.1026,.0131-.0616-.0349-.077-.0655,.0102-.083,.0411-.0087,.0873-.0218,.1283-.0306,.0564,.0044,.1077-.0043,.1539-.0349,.1026,.0087,.1693-.0218,.2052-.1048,.0411-.0874,.0924-.166,.1385-.2534,.0308-.0087,.0513-.0305,.0513-.0611,.0513-.0219,.0873-.0568,.1129-.1005,.0513-.0087,.0975-.0306,.1026-.0699,.0051-.0262-.0308-.0305-.0616-.0349-.4617-.2315-.5592-.3189-.5386-.5154,.0513,.0349,.0974,.0655,.1487,.0961,.0308,.0306,.0616,.0611,.118,.0524,.2309,.0917,.4669,.1747,.7183,.2315,.0359,.0262,.0821,.048,.118,.0087,.0308-.0305,.0154-.0742-.0103-.1092-.0975-.1223-.236-.2271-.3129-.3625-.0257-.0961-.0565-.1965-.0821-.2926,.0051-.0612,.0102-.1267,.0154-.1879,.0256-.1048,.0564-.2096,.0821-.3144,.0205-.0437,.0615-.0918,.0154-.1485-.5644,.1485-1.0466,.3974-1.4724,.7337-.0308,.0132-.0513,.0306-.0513,.0612-.2155,.3145-.2566,.6595-.2258,1.0133-.0154,.0655-.0154,.1267,.0154,.1878,0,.249,.0411,.4936,.1898,.7164-.0051,.0305,.0052,.0524,.0359,.0699,.0206,.0611,.0411,.1266,.0924,.179,.1334,.332,.0769,.6639,.0103,1.0003-.0975,.5066,.1693,.8473,.6464,1.1138,.4258,.2402,.867,.3013,1.3441,.1616,.0616-.0175,.1437-.0219,.1334-.1092-.0359-.297,.0718-.5722,.1796-.8474-.5952-.1048-1.1236,.1966-1.7649,.1922,.2155-.131,.3745-.2271,.5541-.3363-.2565-.1704-.4463-.38-.4925-.6421-.0359-.2184-.0616-.3975-.4104-.3407-.0924,.0131-.1334-.0437-.0205-.0917,.4001-.0481,.4104-.0612,.4309-.3887,.0359-.0394,.041-.0699,.0308-.1092Zm-7.7519,18.7335c-.0154,.0043-.0256,.0087-.041,.0131,.0154,.0087,.0256,.0131,.041,.0218,.4823,.1529,.9748,.2708,1.5032,.2272,.0462-.0044,.1334,.0131,.1385-.0437s-.0718-.0524-.1231-.0655c-.2257-.0525-.4515-.1136-.6772-.1704,.0051-.0175,.0051-.0306,.0102-.048,.6875-.0568,1.3801,.1048,2.0932,.0349-.4053-.3538-.8824-.4368-1.4211-.4193-.5694,.0262-1.0363,.2664-1.5237,.4499Zm2.4831-33.61902c.4514-.08736,.867-.27954,1.3492-.35379-.4514-.26207-1.8674,.03494-2.4112,.5023,.631,.00436,1.221,.1485,1.8213,.12666,.395-.0131,.7233-.17471,1.0414-.41057-.2976-.03931-.5592-.00437-.8157,.07425-.3181,.10046-.6413,.14851-.9748,.10483,0-.01311-.0051-.02621-.0102-.04368Zm3.7553,.5154c.0052,.00437,.0103,.0131,.0154,.01747v-.00873c-.0051,0-.0102-.00437-.0154-.00437-.1641-.10483-.3539-.17035-.5489-.20092-.3745-.05241-.7234-.03494-1.0209,.22276-.2309,.19655-.4925,.36253-.8157,.44551-.0616,.01748-.1334,.02184-.1847,.07426,.8208,.31885,2.4317,.12667,2.7806-.35816-.5387,.20528-1.062,.30574-1.6161,.2839,.272-.1354,.5592-.23149,.8568-.30574,.1847-.04368,.3848-.05242,.5489-.16598Zm2.6165,12.60552c.0769,.0131,.0667-.0481,.0872-.0787,.3283-.5328,1.0363-.6944,1.6366-.3712,.0974,.0524,.1898,.1223,.2821,.1791,.0308,.0174,.0565,.0655,.1026,.0262,.0308-.0262,.0308-.0655,.0052-.1005-.0411-.0568-.0821-.1092-.1232-.166-.1898-.2533-.3283-.5241-.3386-.8692,.1437,.1354,.2566,.2446,.3643,.3538,.0513,.0524,.0923,.118,.1334,.1791,.1436,.214,.1385,.214,.3848,.1092,.0307-.0131,.0615-.0306,.0974-.0349,.1385-.0131,.1334-.083,.118-.1747-.03081-.1573-.0564-.3189-.0615-.4761-.0052-.1398-.0052-.2883,.11279-.4412,.1078,.3189,.0975,.6202,.1385,.9173,.0154,.0917,.0411,.1441,.1642,.1659,.2206,.0393,.4104,.1398,.6054,.2359,.0975,.048,.1949,.1092,.3335,.1136-.0616-.2097-.1283-.4063-.1693-.6072-.0411-.2053-.0206-.4062,.0256-.6071h.0564c.0821,.3014,.1642,.6028,.2463,.9085,.118-.0306,.1231-.1005,.1488-.166,.1488-.4062,.395-.5722,.8773-.5765,.1539,0,.1282-.0481,.1026-.1354-.1334-.498-.5439-.76-1.0774-.9216-.3078-.0918-.5849-.0437-.8465,.1092-.1026,.0611-.2001,.1266-.3027,.1878-.1488,.0917-.3232,.1223-.4976,.0742-.2206-.0567-.4515-.0655-.6772-.1092-.1693-.0349-.3284-.0087-.4823,.0612-.9593,.428-1.3903,1.1356-1.4826,2.0223-.0052,.0611-.0205,.131,.0513,.1791v.0262c.0051-.0044,.0154-.0088,.0205-.0131-.0154,.0043-.0256,.0043-.0359,0Zm5.7921,4.0358c-.0205,.0131-.0359,.0306-.0564,.0437-.2258-.1791-.4464-.3625-.6772-.5372-.1642-.1267-.3386-.2446-.5079-.3669-.077-.0568-.154-.0219-.2053,.0174-.0615,.0481,.0257,.0787,.0513,.1136,.1745,.2271,.3079,.4761,.4207,.7338,.118,.2752,.2104,.5634,.3438,.8386,.2462,.5067,.9029,.6028,1.3544,.214,.5438-.4673,.7079-1.1836,.4104-1.7908-.0462-.0961-.0975-.1965-.1385-.297-.1129-.2839-.0206-.4673,.3026-.5896,.154-.0568,.313-.0961,.4669-.1485,.4002-.1398,.5079-.5416,.2206-.8168-.1796-.1704-.4104-.249-.6721-.2402-.5797,.0174-1.1235,.1659-1.616,.4193-.1898,.0961-.3745,.214-.4463,.4062-.0154,.0436-.0667,.1135,.0461,.1179,.4669,.0044,.9286-.0131,1.3903-.048,.0513-.0044,.1026-.0787,.1386-.0175,.0359,.0611-.0308,.1048-.0924,.1441-.2052,.1267-.4309,.2097-.6926,.2228-.2411,.0131-.4873,.0043-.7285-.0044-.0667,0-.1539-.0393-.1847,.0612-.0359,.1048,.0616,.1179,.1334,.1441,.118,.048,.2411,.0873,.3591,.1398,.2412,.1092,.4669,.2315,.6413,.4236-.4053-.1616-.8465-.2052-1.262-.3319,.4668,.3014,.8311,.6683,1.0004,1.1487Zm-.8516-6.7046c.4617,.3102,.6823,.7033,.6874,1.1924,0,.0568,.0308,.0874,.0821,.1092,.354,.1573,.5797,.4194,.7798,.6989,.0923,.1267,.1334,.1136,.2155,0,.1488-.2184,.3847-.3669,.631-.5023-.1385,.2752-.3129,.5241-.5079,.7644-.041,.048-.1077,.0873-.077,.1528,.0924,.1835,.1283,.38,.1334,.6159,.2719-.2228,.5285-.3713,.9184-.4062-.1796,.1398-.3079,.2533-.4464,.3538-.1436,.1004-.3027,.1922-.4514,.3407,.3899-.0175,.7182,.0349,1.0209,.1834,.0667,.0306,.118,0,.1795-.0175,.2412-.0742,.4874-.1135,.7439-.1091-.1847,.1528-.4514,.1659-.6618,.2882,.195,.166,.313,.3582,.3489,.5809,.0154,.1005,.0667,.1442,.1744,.166,.2411,.0524,.4566,.1485,.5951,.332,.0975,.1223,.1642,.0873,.2463-.0044,.2001-.214,.3129-.463,.3437-.7338,.0359-.345-.0564-.6726-.277-.9653-.1693-.2271-.4669-.2315-.7337-.297-.0051,0-.0153-.0043-.0205-.0043-.4104-.0743-.672-.2971-.8054-.6246-.0719-.1791-.1129-.3669-.1796-.546-.2257-.629-.6464-1.1138-1.4057-1.3235-.4925-.1266-1.0312-.0742-1.5339-.2446Zm-4.4275,8.3862c.2104-.1004,.3181-.2795,.5028-.3931,.0718-.0437,.0821-.083-.0051-.131-.1232-.0699-.236-.1529-.3079-.2621-.1077-.1616-.2206-.2533-.4309-.1004-.0513,.0393-.1437,.0393-.2206,.048-.0872,.0087-.1129,.0262-.0975,.1092,.077,.4543,.2309,.8867,.4823,1.2929,.1847,.2926,.4412,.5241,.7695,.7076,.2257,.1266,.4361,.1397,.6669,.0393,.3386-.1573,.6926-.1616,1.0518-.0743,.2411,.0568,.47189,.1442,.7131,.1966,.4668,.0961,.9439,.1485,1.3646-.1092,.4566-.2796,.6875-.7032,.8722-1.14,.041-.0917-.0052-.1311-.1283-.1442-.2411-.0262-.4771-.083-.6721-.2227-.0923-.0655-.1231-.0524-.1795,.0306-.2001,.2839-.4361,.5285-.8876,.511,.0719,.1878,.1591,.3538,.1283,.5591-.3129-.498-.7901-.8649-1.25179-1.2711-.0923,.3931-.1026,.8037-.5028,1.1138,.0719-.3931,.1027-.76,.2258-1.1138,.0359-.1004,.0051-.1266-.1129-.1135-.277,.0349-.5541,.0655-.6054,.3712-.0051,.0175-.0102,.035-.0205,.0481-.1129,.1398-.1949,.3057-.4207,.3843,.118-.2358,.2258-.4498,.3386-.677-.0769,0-.1334,.0088-.1847-.0043-.2103-.0568-.3488-.0088-.4873,.1485-.1437,.1485-.3592,.2184-.6003,.1965Zm3.268-8.9977c.0257-.1223,0-.2183-.0462-.3101-.26669-.5547-.5746-1.0876-.9491-1.5942-.0359-.0481-.0667-.0699-.1282-.0655-.0872,.0043-.0667,.0611-.0667,.1048-.0103,.2009-.0872,.3844-.2206,.546-.2309,.2795-.5797,.4673-.8414,.725-.2565,.249-.4361,.498-.4001,.8343,.0205,.1922,.3386,.4193,.5592,.3974,.2873-.0262,.5489,.0263,.8157,.0961,.1898,.0525,.3745,.0393,.5438-.0873,.30779-.2315,.672-.3451,1.0927-.3101,.2412,.0218,.4618-.0219,.6413-.1922,.3284-.3232,.3335-.7556,.0359-1.2055-.3078-.4674-.8157-.7469-1.3031-1.0483-.1282-.0786-.2513,.0218-.3386,.0742-.0872,.0525,.036,.1136,.0821,.1617,.3284,.3319,.5182,.725,.6824,1.1269,.07179,.179,.0666,.3625,.0256,.5459-.0256,.0786-.0462,.1529-.1847,.2009Zm-.9645,12.2255c.0257,.0612-.0154,.0787-.041,.1049-.2206,.2489-.4925,.4498-.749,.6639-.077,.0655-.0667,.1223-.0257,.1878,.0513,.0742,.1077,.0175,.159,0,.4464-.166,.8876-.3407,1.2826-.5809,.3745-.2228,.6977-.4892,.8362-.878,.0873-.2446,.0206-.4105-.2411-.5416-.159-.083-.354-.1179-.5027-.214-.3079-.2053-.6465-.2926-1.0364-.2839-.1282,.0044-.2513-.0087-.3591,.048-.2719,.1442-.5694,.1704-.8824,.166-.3437-.0043-.6721,.0786-.9953,.1747-.1744,.0524-.2462,.1573-.2308,.3145,.0308,.2796,.1487,.5285,.3591,.7425,.1693,.1704,.3386,.3451,.4771,.5373,.0308,.0393,.0462,.1135,.1334,.083,.0872-.0306,.0359-.0961,.0256-.1398-.0564-.2184-.0564-.4368,.0462-.6464,.0257-.0524,.0154-.1398,.1334-.1311-.0051,.2621,.0718,.5154,.1231,.7688,.0103,.0393,.0103,.0917,.0667,.1004,.0821,.0131,.077-.0524,.0975-.0917,.0923-.214,.2155-.4149,.4207-.5634,.1436-.1049,.3027-.2053,.5643-.2272-.2668,.2184-.4155,.4455-.5797,.6596-.0667,.0873-.1077,.1922-.159,.2882-.0257,.0525-.0052,.0918,.0461,.1223,.0565,.035,.0872-.0087,.1232-.0349,.0461-.0349,.0872-.0743,.1282-.1136,.2206-.2184,.4823-.3843,.7798-.5154Zm.2001-7.3466c-.1026-.1048-.2411-.1616-.3745-.214-.5079-.201-.7234-.5547-.6464-1.009,.041-.2446-.0719-.3625-.2976-.4543-.0462-.0174-.0872-.0393-.1282-.0567-.6054-.2577-1.1236-.0088-1.1544,.5634-.0102,.1573,.0206,.3189,.0206,.4761,0,.1704-.1232,.2533-.313,.214-.3027-.0568-.4361-.0174-.5643,.2228-.195,.3538-.2822,.7338-.2719,1.1181,.0154,.3538,.2975,.5679,.7131,.5853,.277,.0088,.5541-.0436,.8311,.0088,.0667,.0131,.0975-.0306,.1385-.0656,.195-.1747,.4207-.3057,.6823-.4018,.0616-.0218,.1642-.0306,.1847-.131-.2308-.0044-.4463-.0175-.6464-.0961,.4515-.1136,.9183-.1398,1.3749-.2359-.2411-.0917-.4925-.1616-.7336-.2402-.3232-.1048-.5233-.2708-.5438-.4455,.2976,.1572,.6413,.1135,1.0055,.2227-.2565-.2184-.59-.2882-.7541-.5285,.4668,.2228,.9593,.3626,1.4775,.4674Zm2.837,5.0273c.4618-.1354,.8978-.0873,1.3237-.1354,.2-.0218,.3796-.0742,.5233-.1965,.3129-.2665,.5078-.5766,.5181-.9609,.0103-.4325,.1744-.8081,.5849-1.0745,.4309-.2796,.5438-.6508,.5181-1.0832-.0102-.1223-.0154-.249-.0308-.3713-.0461-.4149-.3437-.6901-.6977-.9522-.21201,.4572-.5985,.776-1.1594,.9566-.0359,.0131-.0872,.0131-.0975,.0567-.0103,.0481,.0359,.0699,.077,.0961,.2873,.1704,.6259,.2577,.9234,.4106,.041,.0219,.1129,.0219,.0924,.0961-.3284,0-.6106-.1179-.9184-.249,.1334,.4106,.0411,.8605,.549,1.1095,.0564,.0262,.0923,.0873,.1385,.131,.0256,.0262,.0769,.0437,.0462,.0874-.0257,.0393-.0719,.0218-.1129,.0174-.2206-.0087-.3796-.1266-.5541-.2577-.0923,.3757-.277,.6901-.554,.9609-.077,.0743-.0052,.1005,.0513,.1354,.1846,.1136,.2513,.2883,.3283,.4587-.2001-.0874-.4053-.1485-.5592-.2752-.0616-.0524-.118-.0786-.195-.0218-.159,.1048-.3437,.1528-.5386,.179-.077,.0088-.1129,.0306-.0924,.1005,.0513,.2577-.0154,.4979-.1642,.7818Zm-2.2881-2.0572c-.0051-.4412-.0051-.8779,.0821-1.3103,.0103-.0437,.0308-.1049-.0359-.1267-.0718-.0262-.09229,.0349-.118,.0742-.1129,.1354-.2103,.2796-.3335,.4062-.1898,.1966-.3437,.4237-.62579,.5417,.2616-.3189,.436-.6727,.6618-1.0046-.4566,.3363-.9081,.6639-1.4981,.808,.5182-.3451,1.0055-.7251,1.4775-1.1094,.1129-.0961,.1334-.1791,.0154-.2839-.1282,.1179-.2924,.1616-.46169,.2009-.2873,.0699-.5746,.1441-.8516,.2359-.59,.1878-.9645,.6639-.9594,1.1967,.0051,.4674,.4463,.7775,.985,.6901,.1591-.0262,.313-.0567,.472-.0829,.4207-.0743,.749,.0436,1.0055,.3319,.1437,.1616,.2617,.3363,.4413,.4717,.1385,.1049,.3026,.1529,.4822,.0874,.3335-.1223,.4566-.4106,.3129-.6901-.041-.0743-.0769-.1529-.1026-.2315-.1641-.4717-.4258-.9129-.6259-1.3759-.13329,.3844-.0615,.8081-.3232,1.1706Zm3.858,7.1195c-.1795-.38-.2257-.7338-.1231-1.0963,.1129-.4018,.0256-.7906-.1385-1.1662-.0924-.2184-.2309-.4018-.549-.4193-.0667-.0044-.1334-.035-.1949-.0568-.7542-.2533-1.2569-.7251-1.575-1.3453-.0205-.0393-.0257-.1004-.1078-.083-.0513,.0131-.1231,.0175-.1436,.0481-.0308,.0437,.0308,.083,.0667,.1179,.159,.1704,.3027,.3538,.4155,.5504,.118,.2009,.2719,.38,.4618,.5416,.354,.3101,.672,.642,.8772,1.0439,.0206,.0436,.0924,.083,.0257,.1441-.0205-.0175-.0462-.0306-.0564-.048-.2514-.3669-.5951-.6683-.9594-.9479-.2565-.1921-.4361-.4236-.5746-.6857-.041-.0786-.0718-.1747-.1847-.249,.0462,.2272,.0103,.4281-.0923,.6115-.077,.1311-.0308,.1442,.118,.1529,.6823,.0393,1.0158,.4062,.9183,.9871-.0564,.3189-.2565,.5722-.4874,.8124-.0923,.1005-.0769,.1573,.0359,.2272,.2104,.1354,.4258,.2664,.667,.3625,.4976,.2096,1.0312,.3232,1.6006,.4979Zm-6.3975-.9696c-.6669,.6726-.6669,.677-1.5031,.9827-.1078,.0393-.0872,.0874-.0667,.1529,.1231,.3451,.3027,.6726,.5284,.9784,.1898,.2577,.4463,.3232,.7593,.1747,.1642-.0786,.3181-.1703,.4668-.2664,.4412-.2971,.903-.415,1.4109-.1267,.1231,.0699,.2206,.0393,.3129-.0481,.35909-.3319,.30779-1.1443-.1077-1.4195-.2463-.1616-.5284-.2795-.7952-.4193,.2822,.3713,.3848,.7644,.3027,1.2142-.4207-.2402-.3643-.6988-.6824-1.0045-.0102,.3494-.0461,.6595,.0308,.9871-.0461-.0219-.0667-.0306-.0769-.0437-.0257-.0262-.0462-.0611-.0667-.0917-.2206-.3145-.1847-.6552-.1437-.9959,.0052-.048,.0513-.1179-.0564-.1179-.0872,0-.0513,.0699-.0513,.1092-.0205,.2315-.0462,.4673-.0975,.6988-.0513,.2315-.1847,.4193-.4155,.5504-.0308,.0174-.0616,.0393-.0924,.0174-.0154-.0087-.0154-.048-.0051-.0655,.1077-.1441,.1077-.3145,.1796-.4717,.1128-.2402,.1641-.4936,.1692-.7949Zm1.2518-.2839c.236,.1135,.44119,.2183,.6465,.3101,.24619,.1092,.4104,.2751,.53349,.4848,.1744,.297,.1796,.6071,.1231,.9216-.0205,.1267,.02061,.1616,.1642,.1747,.3642,.035,.9594-.3712,.9901-.6814,.0052-.0698-.0307-.1266-.0666-.1834-.2463-.3538-.195-.6858,.0769-1.0133,.0975-.118,.1847-.2359,.2719-.3582,.0975-.1398,.1642-.2883,.159-.4543-.0102-.2314-.1128-.345-.3745-.4062-.159-.0393-.3334-.0393-.4771-.1179-.0667-.0393-.1026,.0044-.1385,.0393-.4463,.3625-.9645,.6334-1.5442,.8168-.0564,.0175-.0872,.0437-.1077,.0917,.5643,.0219,.99519,.3407,1.52879,.4455-.077,.118-.2104,.1136-.3335,.1223-.2873,.0219-.5489-.0611-.7952-.1703-.2052-.0917-.4104-.131-.6567-.0218Zm-1.144,6.6259c-.6105-.7556-.6208-1.6117-.5233-2.4984-.2206,.1704-.4156,.3145-.6054,.4587-.0462,.0349-.0821,.0786-.0923,.1354-.0359,.3406-.0667,.6813,.1334,1.0002,.0205,.0306,.0256,.0568,.0051,.083-.077,.1179-.0205,.2315,.0205,.345,.1898,.5504,.513,1.0396,.9286,1.4851,1.1954-1.2099,.9286-2.8304,.077-3.9704-.3643,.9872-.0821,1.9699,.0564,2.9614Zm6.8746-8.622c-.5336-.1616-1.0158-.4019-1.4981-.6421-.236-.1136-.4668-.2359-.6618-.3975-.1129-.0917-.2052-.2926-.2975-.2882-.1334,.0043-.2617,.1528-.3951,.2402-.0051,.0044-.0102,.0087-.0154,.0087-.0769,.035-.0872,.0699-.0359,.1398,.4464,.5765,1.0158,.9915,1.8521,1.105,.5027,.0699,1.0106,.0131,1.55441,.1005-.2257-.3363-.354-.6683-.4309-1.0221-.0616-.2708-.1077-.5503-.2206-.8124-.0513-.1179-.1078-.2184-.2976-.131-.1231,.0568-.2667,.0611-.4053,.0742-.4155,.0306-.8311-.048-1.2466-.0393-.0718,0-.1334-.0218-.1745,.0481-.041,.0699,0,.1092,.0513,.1572,.1232,.1048,.2258,.2271,.3797,.3058,.6105,.3145,1.1594,.7119,1.7648,1.0395,.0359,.0218,.0975,.0393,.077,.1136Zm-7.6134,2.0004c-.4463-.0087-.8875-.0262-1.3236-.131,.2155-.1005,.431-.1791,.6823-.1791,.2565,0,.5131,.0218,.7696-.0262,.0615-.0131,.1539,.0087,.1641-.0786,.0103-.0874-.0872-.0786-.1487-.0917-.3438-.0699-.6516-.2097-.985-.2971,.0153-.0611,.0564-.0655,.1026-.0655,.3026-.0131,.5951,0,.8772,.1049,.0616,.0218,.1283,.1004,.2001,.0262,.077-.0743-.0154-.1223-.0615-.1791-.2617-.297-.6516-.5067-.826-.8605-.0257-.048-.0565-.0524-.118-.0393-.3797,.1136-.7593,.2271-1.0363,.5023-.3643,.3582-.3848,.5373-.0411,.9085,.1539,.1704,.2001,.3451,.1385,.546-.0461,.1529-.1026,.3057-.1385,.463-.0564,.2664,.0975,.4193,.4156,.428,.0564,0,.1128-.0087,.1641-.0131,.7337-.0961,1.2005-.5372,1.6828-.9565,.0205-.0175,.0308-.0393,.0051-.0612-.0154-.0087-.041-.0131-.0564-.0087-.0513,.0262-.1078,.0568-.1539,.0873-.195,.1223-.3951,.2403-.6362,.2971-.236,.0524-.4566,.0218-.5694-.0787,.318-.0436,.6105-.1572,.8926-.297Zm.5541-16.1259c.4566-.0917,.8773-.1398,1.2877-.2664-.077-.0787-.1693-.1136-.2514-.1529-.4002-.1922-.7541-.4237-.985-.7688-.0205-.0305-.0462-.0611-.0924-.0611-.4412,.0044-.8772,.0393-1.2312,.3014-.1488,.1092-.1796,.2358-.0975,.38,.0923,.1659,.1898,.3276,.2924,.4892,.0667,.1048,.1591,.1965,.3027,.2315,.4977,.1354,.7644,.428,.8003,.8735,.0103,.1398,.0873,.2621,.2053,.3626,.0564,.048,.1128,.0829,.2,.0305,.3951-.2664,.785-.5241,.9081-.9784,.0359-.131-.0205-.2227-.077-.3101-.0461-.0699-.1539-.0043-.2257,.0131-.3488,.0786-.6772,.0612-1.0363-.1441Zm8.3008,1.9c.0103,.0131,.0154,.0262,.0256,.0393-.1333,.1048-.277,.2053-.4001,.3232-.3797,.3625-.7542,.7251-1.2056,1.0264-.0667,.0437-.0924,.0743-.0257,.1398,.195,.1966,.354,.4062,.4874,.6377,.0359,.0655,.0769,.0874,.1539,.035,.3899-.2621,.6823-.5766,.7388-1.009,.041-.3145,.1385-.6115,.2924-.9041,.118-.2272,.236-.4587,.3796-.6814-1.2928,.1834-2.5702,.3625-3.4834,1.306,.395,.0393,.7439,.1354,1.0414,.3232,.1334,.083,.2052,.0611,.3027-.035,.2873-.2751,.5797-.5459,.8722-.8124,.2257-.2053,.5181-.3014,.8208-.3887Zm-8.624,17.2179c-.2976,.0174-.5541-.0044-.7644-.1485-.118-.083-.236-.0918-.3694-.0568-.3335,.083-.6208,.2358-.8824,.4237-.4361,.3144-.8311,.6639-1.2364,1.0046-.1231,.1048-.2463,.2096-.4002,.2795-.0359,.0175-.118-.0044-.1026,.0611,.0103,.0525,.077,.0568,.1334,.0612,.3181,.0262,.6362,.0568,.9542,.0874,.7439,.0655,1.4006-.1223,1.9701-.5286,.3386-.2402,.6259-.5241,.8721-.8298,.0205-.0262,.0411-.0481,.0103-.0699-.9645,.4586-1.9957,.7556-3.0987,1.0177,.0462-.1136,.1129-.118,.1539-.1398,.6464-.3276,1.3544-.546,2.0418-.7906,.2514-.0873,.4874-.1878,.7183-.3712Zm4.7455-19.0131c-.0564,.083-.1385,.0699-.2103,.0743-.195,.0087-.3899-.0044-.5746-.0524-.2206-.0525-.4412-.1005-.667-.1442-.0974-.0218-.1847-.0306-.2308,.083-.0462,.1179,.0513,.1441,.1334,.1835,.1333,.0611,.2821,.1004,.4104,.1703,.4053,.2184,.6874,.5329,.9183,.8779,.077,.118,.1436,.1223,.2565,.0481,.1385-.0961,.2719-.2053,.4207-.2927,.4207-.2402,.5438-.9259,.2206-1.2797-.0513-.0568-.0923-.0874-.1847-.0743-.3283,.0437-.5181-.048-.6618-.3057-.0718-.1354-.1334-.2708-.2206-.4019-.1436-.214-.3078-.2446-.5489-.1048-.2206,.1223-.4259,.2752-.6567,.3713-.1642,.0698-.1642,.1266-.1129,.2489,.0359,.0917,.077,.1311,.2001,.1311,.3335-.0044,.6413,.0742,.9337,.2096,.1796,.083,.3489,.2053,.5746,.2577Zm-2.4061-2.5246c.2616,.1966,.3694,.415,.38989,.6683,.0205,.2315-.0103,.4586-.0513,.6901-.0103,.0481-.0257,.0961,.0359,.1267,.0462,.0218,.077,.0043,.1026-.0262,.1898-.2403,.4874-.3669,.7593-.5154,.118-.0612,.1539-.1223,.0821-.2272-.077-.1135-.1283-.2402-.2155-.345-.2975-.3625-.6208-.6989-1.1902-.7644-.3335-.0349-.3386-.0393-.3181,.2446,.0205,.2883-.077,.3931-.4156,.4543-.1282,.0218-.2616,.0436-.3847,.0786-.3591,.1004-.5951,.5678-.2104,.8473,.236,.1704,.472,.3276,.7388,.4543,.0821,.0393,.1385,.0699,.1796-.0393,.0615-.1529,.2052-.2359,.3899-.2577,.082-.0088,.118-.0393,.1282-.1092,.0513-.4106,.0565-.8212-.02049-1.2798Zm1.81609,5.3549c.1539-.0218,.2514-.0436,.354-.0567,.1488-.0175,.2463-.0437,.3232-.1966,.3284-.6552,.8414-1.1968,1.5186-1.6248,.0051-.0044,.0205,.0087,.0513,.0218-.2052,.3101-.5592,.5242-.749,.8387-.1899,.3144-.3797,.6333-.7234,.891,.1488-.0175,.2565,.0131,.3489-.0961,.4412-.5547,1.0414-.9478,1.7802-1.1749,.2103-.0656,.2873-.1748,.277-.3407-.0154-.38-.0975-.76-.0103-1.1662-.4258,.1485-.8311,.262-1.1851,.4673-.1231,.0699-.2103,.1442-.2411,.2708-.041,.1704-.1539,.3058-.3129,.4062-.2514,.1573-.4874,.3363-.785,.4237-.0718,.0218-.082,.0524-.0667,.1048,.1078,.5023-.0974,.8954-.5797,1.2317Zm-5.4483-5.7392c.4412,.1441,.908,.1659,1.3595,.2445,.1795,.0306,.3642,.0437,.5181,.1267,.1591,.0874,.2976,.0481,.4464,0,.0872-.0262,.0975-.048,.0359-.1092-.118-.1135-.2309-.2358-.3489-.3538-.2821-.2839-.6361-.463-1.0773-.4761-.6567-.0218-1.2775,.166-1.9598,.2272,.2103,.1485,.4002,.262,.5695,.3974,.2616,.2097,.5079,.4412,.7746,.6465,.313,.2402,.6721,.4149,1.1133,.4367,.0667,.0044,.1437,.0219,.1539-.0698,.0205-.1747,.1283-.3189,.2565-.4892-.672-.083-1.339-.1529-1.8417-.5809Zm3.1551-.4237c.277-.0044,.5233,.0174,.749,.083,.1231,.0349,.1539,0,.1744-.0961,.1078-.4717,.077-.9391-.0615-1.4065-.0462-.1528-.118-.2882-.2309-.4149-.0513-.0524-.08211-.0961-.1488-.0131-.1539,.1965-.3796,.3276-.6002,.4586-.3232,.1878-.6105,.4106-.826,.6901-.118,.1485-.2103,.3189-.1539,.498,.0923,.2926,.3848,.4935,.4925,.7862,.1796-.5635,.5643-1.0308,.8055-1.5812,.1693,.38,.0205,.6814-.2001,.9959Zm2.2522,23.6516c-.4874-.3013-.8465-.6639-1.2672-.9696-.2155-.1572-.4566-.2446-.7336-.2664-.3797-.0306-.7645-.0306-1.1338-.1223-.0667-.0175-.118-.0131-.1539,.0524-.0565,.1092-.1232,.2184-.195,.3407,.5182,.0131,.9748,.1266,1.4108,.3275,.3746,.1748,.7234,.4019,1.2108,.5111-.3335,.1004-.61559,.131-.8927,.0218-.27699-.1092-.54379-.2358-.8157-.3538-.195-.083-.3899-.1703-.631-.1878,.1282,.2097,.2565,.3975,.3642,.594,.0513,.0918,.118,.1398,.2258,.1573,.3129,.0437,.631,.0917,.9439,.131,.5644,.083,1.0774-.1223,1.6674-.2359Zm-6.5617-30.50034c-.554,.23586-.7439,.65517-.79,1.10942-.0667,.6377,.1077,1.22735,.7131,1.67724-.1693-.65517-.1591-1.30598,.0462-1.95678-.0513,.69885,.0615,1.3846,.2052,2.07471,.1026-.19655,.1898-.40184,.2719-.60276,.2154-.56781,.2514-1.12689-.1078-1.66413-.1333-.20092-.2924-.38874-.3386-.6377Zm-4.4479,1.45884c-.3078-.33632-.6464-.63333-.9799-.93908,.0154-.0131,.0256-.0262,.041-.03931,.3797,.21403,.7593,.43242,1.18,.66828-.1334-.38-.3335-.66391-.6567-.89103-.554-.39311-1.2364-.57219-1.8674-.84299-.159,1.06575,1.1133,2.21884,2.283,2.04413Zm5.2842,33.405c-.4207-.4237-.2206-.8998-.1745-1.3977-.1846,.166-.3386,.2926-.3642,.4979-.0718,.546-.0051,1.0745,.2155,1.5899,.1334,.3057,.4053,.5372,.7028,.8255-.0308-.5722,.2463-1.0352,.3694-1.5287,.1129-.4455,.0564-.8823-.1744-1.2973-.0872-.1572-.195-.3057-.4156-.4411,.0462,.6028,.1231,1.1749-.159,1.7515Zm1.5134-29.9413c.0051-.035,.0103-.0699,.0051-.1049-.0102-.44547,.1232-.87788,.118-1.3234,0-.03931,.0206-.07425,.0616-.07862,.0616-.00437,.0462,.03931,.0513,.07425,.0462,.20966,.0616,.41931,.0359,.63334-.0359,.30138-.118,.60713-.0308,.91723,.0206-.0087,.0359-.0131,.0411-.0218,.4463-.66831,.5079-1.389,.354-2.13152-.0257-.13104-.1078-.24023-.1899-.34943-.0718-.08735-.1231-.12229-.1898,.00437-.1077,.20092-.277,.36253-.4668,.5154-.1591,.12667-.2976,.27081-.3335,.45862-.1077,.54161,.0103,1.02643,.5438,1.40646Zm-6.6899,29.3604c.0051,.0043,.0051,.0218,.0154,.0218,.9953,.3538,2.006,.463,3.0474,.1616,.0821-.0218,.1385-.0568,.1847-.1354-.8209,.0524-1.6007-.0218-2.3446-.3145,.8671,.0175,1.729,.035,2.596,.0524,.0051-.0174,.0102-.0393,.0102-.0567-.3078-.2665-.672-.4761-1.1184-.4325-.8516,.083-1.6776,.2621-2.3907,.7033Zm5.9768-29.0809c-.1847-.1747-.4617-.2009-.6977-.2926-.8209-.32762-1.4929,.048-2.1855,.3363,.826,.6027,2.088,.7469,2.7242,.3057-.5028-.1659-1.0774,.0743-1.5853-.1834,.8362-.2533,1.1492-.2795,1.7443-.166Zm-3.6374,30.8367c-.3232,.5242-.4668,1.7078,.0359,2.2189,.826-.7469,.9081-1.3803,.3489-2.6775-.1539,.5766,.0462,1.1706-.2257,1.7384-.3027-.4237-.1693-.8561-.1591-1.2798Zm-.8465-35.82472c.1129,.27954,.1488,.55908,.1899,.83425,.0256,.20528,.0666,.41057,.1385,.60712,.0102,.03058,.0102,.10046,.0769,.09173,.0616-.00874,.0616-.06115,.0667-.1092,.0359-.29264,.0513-.58965,.0411-.8823-.0206-.50229-.3335-.87792-.7131-1.28413-.0206,.28391-.0975,.5154-.1693,.74689-.0103,.03931-.0206,.08299-.0257,.1223-.0205,.25333-.0513,.50666-.0051,.76,.0667,.3669,.2565,.62896,.5335,.73816-.2514-1.05701-.277-1.32344-.1334-1.62482Zm4.0837,11.34752c.0411-.0567,.0154-.1004,0-.1441-.0102-.0393-.0615-.0786-.0051-.1092,.0513-.0262,.0872,.0175,.1231,.0437,.0872,.0699,.1693,.1398,.2514,.2096,.0257,.0219,.0051,.083,.0667,.0699,.0462-.0087,.0564-.0524,.0616-.1004,.0154-.1791-.2206-.3626-.472-.3669-.0872,0-.1642,.0174-.2104,.0873-.0461,.0699-.0051,.1267,.036,.1791,.0307,.0568,.0718,.1048,.1487,.131Zm7.9674-4.8832c-.0103,.0131-.0975,.0524-.0154,.083,.1026,.035,.1898,.1835,.3129,.0917,.118-.0873,.1796-.2227,.1591-.3712-.0052-.0393-.0052-.0874-.0667-.1005-.0462-.0087-.0667,.0306-.0975,.0524-.0923,.0787-.1796,.1529-.2924,.2446Zm-9.0088,7.3161c.2206,.1485,.4668,.1354,.6361-.0306,.036-.0349,.0924-.0655,.0411-.1179-.0564-.0568-.0975-.0087-.1385,.0218-.1539,.1049-.3181,.1879-.5387,.1267Zm.3437-.3363c-.118-.0612-.2308-.0481-.3386-.0437-.0615,.0044-.1026,.035-.0975,.0917,.0052,.0524-.0307,.118,.0257,.1485,.0462,.0306,.1026-.0087,.1488-.0349,.0872-.0481,.1693-.1005,.2616-.1616Zm-1.1748,9.4738c.0359-.0437,.1231-.1092,.0564-.1442-.0872-.048-.2308-.0393-.3181,.0088-.0667,.0349,0,.1179,.0462,.1659,.0821,.0699,.1488,.0219,.2155-.0305Zm7.6492-16.8467c.0308-.1485,.0565-.2708,.0873-.4105-.2309,.1354-.2514,.2314-.0873,.4105Zm.2719,.083c.1591-.2839,.1334-.4149-.0615-.4804,.0205,.1485,.0359,.2926,.0615,.4804Zm-7.9673,16.4273c.0103-.0436,.1077-.0655,.0257-.1135-.0616-.0393-.1386-.0655-.2052-.0088-.0667,.0568-.1129,.166-.0616,.201,.0923,.0611,.1488-.0699,.2411-.0787Zm.8516-10.522c-.0615-.083-.1539-.0961-.2513-.0917-.0616,0-.1027,.0349-.1129,.083-.0103,.0349-.0103,.0742,.0205,.0961,.0462,.0349,.0872,0,.1334-.0132,.0718-.0218,.1385-.048,.2103-.0742Zm.3643,11.0243c.041,.0306,.0769,.0262,.1026-.0087,.0513-.0743,.0103-.1354-.0564-.1834-.0308-.0219-.077-.0481-.0975,0-.0359,.0698-.0051,.1354,.0513,.1921Zm8.5624-16.9121c.1078-.035,.2206-.0655,.3232-.1485-.1795-.0481-.2616,.0393-.3232,.1485Zm-4.6685,11.5179c0-.0087,.0051-.0131,.0051-.0218h-.0154c-.0051,.0087-.0051,.0131-.0102,.0218,.0102,.0044,.0153,.0044,.0205,0Zm-8.3573,18.7422h.0206c-.0052-.0087-.0052-.0174-.0103-.0218,0-.0044-.0103,0-.0154,0,0,.0087,.0051,.0131,.0051,.0218Z"/>
  </g>
</svg>