<svg width="20" height="20" viewBox="0 0 20 20" fill="none" xmlns="http://www.w3.org/2000/svg">
<g clip-path="url(#clip0_1229_6644)">
<path d="M19.7873 8.1276L10.307 1.18631C10.1242 1.05248 9.87584 1.05248 9.69311 1.18631L0.212718 8.1276C-0.0188446 8.29717 -0.0691571 8.62232 0.100413 8.85389C0.269984 9.08545 0.595179 9.13568 0.826702 8.96619L10 2.24963L19.1733 8.96615C19.2658 9.03393 19.3733 9.06654 19.4799 9.06654C19.6399 9.06654 19.7978 8.99291 19.8996 8.85385C20.0692 8.62232 20.0189 8.29717 19.7873 8.1276Z" fill="#BDC9A6"/>
<path d="M17.2752 9.08398C16.9882 9.08398 16.7555 9.31664 16.7555 9.60363V17.8751H12.5984V13.36C12.5984 11.9272 11.4327 10.7616 9.99996 10.7616C8.56723 10.7616 7.40152 11.9273 7.40152 13.36V17.8751H3.24438V9.60367C3.24438 9.31668 3.01168 9.08402 2.72473 9.08402C2.43777 9.08402 2.20508 9.31668 2.20508 9.60367V18.3948C2.20508 18.6818 2.43777 18.9145 2.72473 18.9145H7.92117C8.19445 18.9145 8.41809 18.7033 8.43879 18.4353C8.44004 18.4231 8.44082 18.4098 8.44082 18.3948V13.36C8.44082 12.5003 9.14024 11.8009 9.99996 11.8009C10.8597 11.8009 11.5591 12.5004 11.5591 13.36V18.3948C11.5591 18.4098 11.5599 18.4228 11.5611 18.4348C11.5816 18.703 11.8053 18.9145 12.0788 18.9145H17.2752C17.5622 18.9145 17.7948 18.6818 17.7948 18.3948V9.60367C17.7948 9.31664 17.5622 9.08398 17.2752 9.08398Z" fill="#BDC9A6"/>
</g>
<defs>
<clipPath id="clip0_1229_6644">
<rect width="20" height="20" fill="white"/>
</clipPath>
</defs>
</svg>
