<svg width="20" height="20" viewBox="0 0 20 20" fill="none" xmlns="http://www.w3.org/2000/svg">
<g clip-path="url(#clip0_1229_6623)">
<mask id="mask0_1229_6623" style="mask-type:luminance" maskUnits="userSpaceOnUse" x="0" y="0" width="20" height="20">
<path d="M20 0H0V20H20V0Z" fill="white"/>
</mask>
<g mask="url(#mask0_1229_6623)">
<path fill-rule="evenodd" clip-rule="evenodd" d="M1.99032 0C0.931885 0 0.0725098 0.859375 0.0725098 1.91781C0.0725098 2.97625 0.931885 3.83562 1.99032 3.83562C3.04876 3.83562 3.90813 2.97625 3.90813 1.91781C3.90813 0.859375 3.04876 0 1.99032 0ZM1.99032 0.625C2.70376 0.625 3.28313 1.20437 3.28313 1.91781C3.28313 2.63125 2.70376 3.21062 1.99032 3.21062C1.27688 3.21062 0.69751 2.63125 0.69751 1.91781C0.69751 1.20437 1.27688 0.625 1.99032 0.625Z" fill="#BDC9A6"/>
<path fill-rule="evenodd" clip-rule="evenodd" d="M1.99032 5.38818C0.931885 5.38818 0.0725098 6.24756 0.0725098 7.306C0.0725098 8.36443 0.931885 9.22381 1.99032 9.22381C3.04876 9.22381 3.90813 8.36443 3.90813 7.306C3.90813 6.24756 3.04876 5.38818 1.99032 5.38818ZM1.99032 6.01318C2.70376 6.01318 3.28313 6.59256 3.28313 7.306C3.28313 8.01943 2.70376 8.59881 1.99032 8.59881C1.27688 8.59881 0.69751 8.01943 0.69751 7.306C0.69751 6.59256 1.27688 6.01318 1.99032 6.01318Z" fill="#BDC9A6"/>
<path fill-rule="evenodd" clip-rule="evenodd" d="M1.99032 10.7764C0.931885 10.7764 0.0725098 11.6357 0.0725098 12.6942C0.0725098 13.7526 0.931885 14.612 1.99032 14.612C3.04876 14.612 3.90813 13.7526 3.90813 12.6942C3.90813 11.6357 3.04876 10.7764 1.99032 10.7764ZM1.99032 11.4014C2.70376 11.4014 3.28313 11.9807 3.28313 12.6942C3.28313 13.4076 2.70376 13.987 1.99032 13.987C1.27688 13.987 0.69751 13.4076 0.69751 12.6942C0.69751 11.9807 1.27688 11.4014 1.99032 11.4014Z" fill="#BDC9A6"/>
<path fill-rule="evenodd" clip-rule="evenodd" d="M1.99032 16.1646C0.931885 16.1646 0.0725098 17.0239 0.0725098 18.0824C0.0725098 19.1408 0.931885 20.0002 1.99032 20.0002C3.04876 20.0002 3.90813 19.1408 3.90813 18.0824C3.90813 17.0239 3.04876 16.1646 1.99032 16.1646ZM1.99032 16.7896C2.70376 16.7896 3.28313 17.3689 3.28313 18.0824C3.28313 18.7958 2.70376 19.3752 1.99032 19.3752C1.27688 19.3752 0.69751 18.7958 0.69751 18.0824C0.69751 17.3689 1.27688 16.7896 1.99032 16.7896Z" fill="#BDC9A6"/>
<path fill-rule="evenodd" clip-rule="evenodd" d="M17.1476 2.23047H19.6151C19.7873 2.23047 19.9276 2.09047 19.9276 1.91797C19.9276 1.74547 19.7873 1.60547 19.6151 1.60547H17.1476C16.9751 1.60547 16.8351 1.74547 16.8351 1.91797C16.8351 2.09047 16.9751 2.23047 17.1476 2.23047ZM3.5957 2.23047H15.5079C15.6804 2.23047 15.8204 2.09047 15.8204 1.91797C15.8204 1.74547 15.6804 1.60547 15.5079 1.60547H3.5957C3.4232 1.60547 3.2832 1.74547 3.2832 1.91797C3.2832 2.09047 3.4232 2.23047 3.5957 2.23047Z" fill="#BDC9A6"/>
<path fill-rule="evenodd" clip-rule="evenodd" d="M17.1476 7.61865H19.6151C19.7873 7.61865 19.9276 7.47865 19.9276 7.30615C19.9276 7.13365 19.7873 6.99365 19.6151 6.99365H17.1476C16.9751 6.99365 16.8351 7.13365 16.8351 7.30615C16.8351 7.47865 16.9751 7.61865 17.1476 7.61865ZM3.5957 7.61865H15.5079C15.6804 7.61865 15.8204 7.47865 15.8204 7.30615C15.8204 7.13365 15.6804 6.99365 15.5079 6.99365H3.5957C3.4232 6.99365 3.2832 7.13365 3.2832 7.30615C3.2832 7.47865 3.4232 7.61865 3.5957 7.61865Z" fill="#BDC9A6"/>
<path fill-rule="evenodd" clip-rule="evenodd" d="M17.1476 13.0063H19.6151C19.7873 13.0063 19.9276 12.8663 19.9276 12.6938C19.9276 12.5213 19.7873 12.3813 19.6151 12.3813H17.1476C16.9751 12.3813 16.8351 12.5213 16.8351 12.6938C16.8351 12.8663 16.9751 13.0063 17.1476 13.0063ZM3.5957 13.0063H15.5079C15.6804 13.0063 15.8204 12.8663 15.8204 12.6938C15.8204 12.5213 15.6804 12.3813 15.5079 12.3813H3.5957C3.4232 12.3813 3.2832 12.5213 3.2832 12.6938C3.2832 12.8663 3.4232 13.0063 3.5957 13.0063Z" fill="#BDC9A6"/>
<path fill-rule="evenodd" clip-rule="evenodd" d="M17.1476 18.3945H19.6151C19.7873 18.3945 19.9276 18.2545 19.9276 18.082C19.9276 17.9095 19.7873 17.7695 19.6151 17.7695H17.1476C16.9751 17.7695 16.8351 17.9095 16.8351 18.082C16.8351 18.2545 16.9751 18.3945 17.1476 18.3945ZM3.5957 18.3945H15.5079C15.6804 18.3945 15.8204 18.2545 15.8204 18.082C15.8204 17.9095 15.6804 17.7695 15.5079 17.7695H3.5957C3.4232 17.7695 3.2832 17.9095 3.2832 18.082C3.2832 18.2545 3.4232 18.3945 3.5957 18.3945Z" fill="#BDC9A6"/>
</g>
</g>
<defs>
<clipPath id="clip0_1229_6623">
<rect width="20" height="20" fill="white"/>
</clipPath>
</defs>
</svg>
