<svg width="20" height="20" viewBox="0 0 20 20" fill="none" xmlns="http://www.w3.org/2000/svg">
<g clip-path="url(#clip0_1229_6637)">
<path d="M10 20C4.4878 20 0 15.5231 0 10.0243C0 4.52555 4.4878 0 10 0C15.5122 0 20 4.47689 20 9.97567C20 15.4745 15.5122 20 10 20ZM10 0.973236C5.02439 0.973236 0.97561 5.01217 0.97561 9.97567C0.97561 14.9392 5.02439 19.0268 10 19.0268C14.9756 19.0268 19.0244 14.9878 19.0244 10.0243C19.0244 5.06083 14.9756 0.973236 10 0.973236Z" fill="#BDC9A6"/>
<path d="M10 5.74238C9.70733 5.74238 9.51221 5.54773 9.51221 5.25576V4.42851C9.51221 4.13654 9.70733 3.94189 10 3.94189C10.2927 3.94189 10.4878 4.13654 10.4878 4.42851V5.25576C10.4878 5.54773 10.2927 5.74238 10 5.74238Z" fill="#BDC9A6"/>
<path d="M10 16.0097C9.70733 16.0097 9.51221 15.8151 9.51221 15.5231V7.20195C9.51221 6.90998 9.70733 6.71533 10 6.71533C10.2927 6.71533 10.4878 6.90998 10.4878 7.20195V15.5231C10.4878 15.8151 10.2927 16.0097 10 16.0097Z" fill="#BDC9A6"/>
</g>
<defs>
<clipPath id="clip0_1229_6637">
<rect width="20" height="20" fill="white"/>
</clipPath>
</defs>
</svg>
